<svg width="200" height="200" viewBox="0 0 200 200" fill="none" xmlns="http://www.w3.org/2000/svg">
<path d="M141.667 175V158.333C141.667 149.493 138.155 141.014 131.903 134.763C125.652 128.512 117.174 125 108.333 125H41.6666C32.826 125 24.3476 128.512 18.0964 134.763C11.8451 141.014 8.33325 149.493 8.33325 158.333V175" stroke="#ACA8BC" stroke-width="16.6667" stroke-linecap="round" stroke-linejoin="round"/>
<path d="M74.9998 91.6667C93.4093 91.6667 108.333 76.7428 108.333 58.3333C108.333 39.9238 93.4093 25 74.9998 25C56.5903 25 41.6665 39.9238 41.6665 58.3333C41.6665 76.7428 56.5903 91.6667 74.9998 91.6667Z" stroke="#ACA8BC" stroke-width="16.6667" stroke-linecap="round" stroke-linejoin="round"/>
<path d="M191.667 175V158.333C191.661 150.948 189.203 143.773 184.678 137.936C180.153 132.099 173.818 127.93 166.667 126.083M133.333 26.0833C140.503 27.9192 146.859 32.0892 151.397 37.9359C155.935 43.7827 158.399 50.9736 158.399 58.375C158.399 65.7764 155.935 72.9673 151.397 78.8141C146.859 84.6608 140.503 88.8308 133.333 90.6667" stroke="#ACA8BC" stroke-width="16.6667" stroke-linecap="round" stroke-linejoin="round"/>
</svg>
