<svg width="15" height="12" viewBox="0 0 15 12" fill="none" xmlns="http://www.w3.org/2000/svg">
<mask id="path-1-outside-1_45_85" maskUnits="userSpaceOnUse" x="0.333496" y="-0.02005" width="15" height="12" fill="black">
<rect fill="white" x="0.333496" y="-0.02005" width="15" height="12"/>
<path d="M1.71573 10.9319L3.57173 3.82795L4.11573 6.22795C3.36907 6.22795 2.73973 5.99328 2.22773 5.52395C1.73707 5.05462 1.49173 4.42528 1.49173 3.63595C1.49173 2.84661 1.73707 2.21728 2.22773 1.74795C2.73973 1.25728 3.3584 1.01195 4.08373 1.01195C4.8304 1.01195 5.44907 1.25728 5.93973 1.74795C6.4304 2.23862 6.67573 2.86795 6.67573 3.63595C6.67573 3.87062 6.6544 4.11595 6.61173 4.37195C6.5904 4.60662 6.5264 4.88395 6.41973 5.20395C6.3344 5.50262 6.18507 5.89728 5.97173 6.38795L4.30773 10.9319H1.71573ZM8.49973 10.9319L10.3557 3.82795L10.8997 6.22795C10.1531 6.22795 9.52373 5.99328 9.01173 5.52395C8.52107 5.05462 8.27573 4.42528 8.27573 3.63595C8.27573 2.84661 8.52107 2.21728 9.01173 1.74795C9.52373 1.25728 10.1424 1.01195 10.8677 1.01195C11.6144 1.01195 12.2331 1.25728 12.7237 1.74795C13.2144 2.23862 13.4597 2.86795 13.4597 3.63595C13.4597 3.87062 13.4384 4.11595 13.3957 4.37195C13.3744 4.60662 13.3104 4.88395 13.2037 5.20395C13.1184 5.50262 12.9691 5.89728 12.7557 6.38795L11.0917 10.9319H8.49973Z"/>
</mask>
<path d="M1.71573 10.9319L3.57173 3.82795L4.11573 6.22795C3.36907 6.22795 2.73973 5.99328 2.22773 5.52395C1.73707 5.05462 1.49173 4.42528 1.49173 3.63595C1.49173 2.84661 1.73707 2.21728 2.22773 1.74795C2.73973 1.25728 3.3584 1.01195 4.08373 1.01195C4.8304 1.01195 5.44907 1.25728 5.93973 1.74795C6.4304 2.23862 6.67573 2.86795 6.67573 3.63595C6.67573 3.87062 6.6544 4.11595 6.61173 4.37195C6.5904 4.60662 6.5264 4.88395 6.41973 5.20395C6.3344 5.50262 6.18507 5.89728 5.97173 6.38795L4.30773 10.9319H1.71573ZM8.49973 10.9319L10.3557 3.82795L10.8997 6.22795C10.1531 6.22795 9.52373 5.99328 9.01173 5.52395C8.52107 5.05462 8.27573 4.42528 8.27573 3.63595C8.27573 2.84661 8.52107 2.21728 9.01173 1.74795C9.52373 1.25728 10.1424 1.01195 10.8677 1.01195C11.6144 1.01195 12.2331 1.25728 12.7237 1.74795C13.2144 2.23862 13.4597 2.86795 13.4597 3.63595C13.4597 3.87062 13.4384 4.11595 13.3957 4.37195C13.3744 4.60662 13.3104 4.88395 13.2037 5.20395C13.1184 5.50262 12.9691 5.89728 12.7557 6.38795L11.0917 10.9319H8.49973Z" fill="white"/>
<path d="M1.71573 10.9319L0.748208 10.6792L0.420906 11.9319H1.71573V10.9319ZM3.57173 3.82795L4.54699 3.60689L2.60421 3.57517L3.57173 3.82795ZM4.11573 6.22795V7.22795H5.36777L5.09099 6.00689L4.11573 6.22795ZM2.22773 5.52395L1.53651 6.24659L1.54418 6.25393L1.55201 6.2611L2.22773 5.52395ZM2.22773 1.74795L2.91895 2.47059L2.91964 2.46994L2.22773 1.74795ZM6.61173 4.37195L5.62534 4.20755L5.61921 4.2443L5.61584 4.28141L6.61173 4.37195ZM6.41973 5.20395L5.47105 4.88772L5.46418 4.90833L5.45821 4.92923L6.41973 5.20395ZM5.97173 6.38795L5.05466 5.98922L5.04288 6.01633L5.03271 6.04408L5.97173 6.38795ZM4.30773 10.9319V11.9319H5.00648L5.24675 11.2758L4.30773 10.9319ZM8.49973 10.9319L7.53221 10.6792L7.20491 11.9319H8.49973V10.9319ZM10.3557 3.82795L11.331 3.60689L9.38821 3.57517L10.3557 3.82795ZM10.8997 6.22795V7.22795H12.1518L11.875 6.00689L10.8997 6.22795ZM9.01173 5.52395L8.32051 6.24659L8.32818 6.25393L8.33601 6.2611L9.01173 5.52395ZM9.01173 1.74795L9.70296 2.47059L9.70364 2.46994L9.01173 1.74795ZM13.3957 4.37195L12.4093 4.20755L12.4032 4.2443L12.3998 4.28141L13.3957 4.37195ZM13.2037 5.20395L12.255 4.88772L12.2482 4.90833L12.2422 4.92923L13.2037 5.20395ZM12.7557 6.38795L11.8387 5.98922L11.8269 6.01633L11.8167 6.04408L12.7557 6.38795ZM11.0917 10.9319V11.9319H11.7905L12.0308 11.2758L11.0917 10.9319ZM1.71573 10.9319L2.68326 11.1847L4.53926 4.08073L3.57173 3.82795L2.60421 3.57517L0.748208 10.6792L1.71573 10.9319ZM3.57173 3.82795L2.59647 4.04901L3.14047 6.44901L4.11573 6.22795L5.09099 6.00689L4.54699 3.60689L3.57173 3.82795ZM4.11573 6.22795V5.22795C3.59878 5.22795 3.21647 5.07372 2.90346 4.78679L2.22773 5.52395L1.55201 6.2611C2.263 6.91284 3.13935 7.22795 4.11573 7.22795V6.22795ZM2.22773 5.52395L2.91896 4.80131C2.65788 4.55158 2.49173 4.20064 2.49173 3.63595H1.49173H0.491733C0.491733 4.64992 0.816252 5.55765 1.53651 6.24659L2.22773 5.52395ZM1.49173 3.63595H2.49173C2.49173 3.07126 2.65788 2.72031 2.91895 2.47059L2.22773 1.74795L1.53651 1.02531C0.816252 1.71425 0.491733 2.62197 0.491733 3.63595H1.49173ZM2.22773 1.74795L2.91964 2.46994C3.2408 2.16216 3.6097 2.01195 4.08373 2.01195V1.01195V0.0119495C3.1071 0.0119495 2.23867 0.352405 1.53583 1.02596L2.22773 1.74795ZM4.08373 1.01195V2.01195C4.58747 2.01195 4.94469 2.16712 5.23263 2.45506L5.93973 1.74795L6.64684 1.04084C5.95344 0.347444 5.07332 0.0119495 4.08373 0.0119495V1.01195ZM5.93973 1.74795L5.23263 2.45506C5.51488 2.73731 5.67573 3.10211 5.67573 3.63595H6.67573H7.67573C7.67573 2.63379 7.34592 1.73992 6.64684 1.04084L5.93973 1.74795ZM6.67573 3.63595H5.67573C5.67573 3.8101 5.65989 4.00025 5.62534 4.20755L6.61173 4.37195L7.59813 4.53635C7.64891 4.23165 7.67573 3.93113 7.67573 3.63595H6.67573ZM6.61173 4.37195L5.61584 4.28141C5.60377 4.4142 5.56285 4.61233 5.47105 4.88772L6.41973 5.20395L7.36842 5.52018C7.48995 5.15557 7.57703 4.79904 7.60763 4.46248L6.61173 4.37195ZM6.41973 5.20395L5.45821 4.92923C5.39053 5.16611 5.26104 5.51456 5.05466 5.98922L5.97173 6.38795L6.8888 6.78667C7.10909 6.28001 7.27827 5.83912 7.38126 5.47867L6.41973 5.20395ZM5.97173 6.38795L5.03271 6.04408L3.36871 10.5881L4.30773 10.9319L5.24675 11.2758L6.91075 6.73182L5.97173 6.38795ZM4.30773 10.9319V9.93195H1.71573V10.9319V11.9319H4.30773V10.9319ZM8.49973 10.9319L9.46726 11.1847L11.3233 4.08073L10.3557 3.82795L9.38821 3.57517L7.53221 10.6792L8.49973 10.9319ZM10.3557 3.82795L9.38047 4.04901L9.92447 6.44901L10.8997 6.22795L11.875 6.00689L11.331 3.60689L10.3557 3.82795ZM10.8997 6.22795V5.22795C10.3828 5.22795 10.0005 5.07372 9.68746 4.78679L9.01173 5.52395L8.33601 6.2611C9.047 6.91284 9.92336 7.22795 10.8997 7.22795V6.22795ZM9.01173 5.52395L9.70296 4.80131C9.44188 4.55158 9.27573 4.20064 9.27573 3.63595H8.27573H7.27573C7.27573 4.64992 7.60025 5.55765 8.32051 6.24659L9.01173 5.52395ZM8.27573 3.63595H9.27573C9.27573 3.07126 9.44188 2.72031 9.70296 2.47059L9.01173 1.74795L8.32051 1.02531C7.60025 1.71425 7.27573 2.62197 7.27573 3.63595H8.27573ZM9.01173 1.74795L9.70364 2.46994C10.0248 2.16216 10.3937 2.01195 10.8677 2.01195V1.01195V0.0119495C9.8911 0.0119495 9.02267 0.352405 8.31983 1.02596L9.01173 1.74795ZM10.8677 1.01195V2.01195C11.3715 2.01195 11.7287 2.16712 12.0166 2.45506L12.7237 1.74795L13.4308 1.04084C12.7374 0.347444 11.8573 0.0119495 10.8677 0.0119495V1.01195ZM12.7237 1.74795L12.0166 2.45506C12.2989 2.73731 12.4597 3.10211 12.4597 3.63595H13.4597H14.4597C14.4597 2.63379 14.1299 1.73992 13.4308 1.04084L12.7237 1.74795ZM13.4597 3.63595H12.4597C12.4597 3.81011 12.4439 4.00025 12.4093 4.20755L13.3957 4.37195L14.3821 4.53635C14.4329 4.23165 14.4597 3.93113 14.4597 3.63595H13.4597ZM13.3957 4.37195L12.3998 4.28141C12.3878 4.4142 12.3468 4.61233 12.255 4.88772L13.2037 5.20395L14.1524 5.52018C14.274 5.15557 14.361 4.79904 14.3916 4.46249L13.3957 4.37195ZM13.2037 5.20395L12.2422 4.92923C12.1745 5.16611 12.045 5.51456 11.8387 5.98922L12.7557 6.38795L13.6728 6.78667C13.8931 6.28001 14.0623 5.83912 14.1653 5.47867L13.2037 5.20395ZM12.7557 6.38795L11.8167 6.04408L10.1527 10.5881L11.0917 10.9319L12.0308 11.2758L13.6948 6.73182L12.7557 6.38795ZM11.0917 10.9319V9.93195H8.49973V10.9319V11.9319H11.0917V10.9319Z" fill="#BFB6DF" mask="url(#path-1-outside-1_45_85)"/>
</svg>
