<svg width="30" height="31" viewBox="0 0 30 31" fill="none" xmlns="http://www.w3.org/2000/svg">
<path d="M0.970386 31C0.78042 31 0.594623 30.9443 0.436044 30.8397C0.277465 30.7351 0.153113 30.5863 0.0783358 30.4117C0.00355873 30.2372 -0.0183108 30.0445 0.0154303 29.8576C0.0491714 29.6707 0.137012 29.4978 0.268118 29.3604L27.9676 0.300807C28.0556 0.208578 28.1608 0.134575 28.2774 0.083006C28.3939 0.0314373 28.5194 0.00333692 28.6468 0.000279605C28.7743 -0.00277771 28.901 0.0192621 29.0199 0.0651816C29.1388 0.111101 29.2474 0.179977 29.3397 0.267882C29.432 0.355788 29.506 0.46102 29.5576 0.577529C29.6091 0.694037 29.6372 0.819551 29.6403 0.946925C29.6434 1.0743 29.6213 1.20103 29.5754 1.31988C29.5295 1.43872 29.4606 1.54736 29.3726 1.63959L1.67313 30.6992C1.58255 30.7944 1.47355 30.8701 1.35273 30.9218C1.23192 30.9735 1.10181 31.0002 0.970386 31Z" fill="#3F3D56"/>
</svg>
