<svg width="566" height="448" viewBox="0 0 566 448" fill="none" xmlns="http://www.w3.org/2000/svg">
<g clip-path="url(#clip0_45_357)">
<path d="M77.0904 448C119.666 448 154.181 445.377 154.181 442.141C154.181 438.905 119.666 436.282 77.0904 436.282C34.5145 436.282 0 438.905 0 442.141C0 445.377 34.5145 448 77.0904 448Z" fill="#F2F2F2"/>
<path d="M139.672 162.6C144.03 158.182 149.851 156.841 152.67 159.604C155.489 162.367 154.246 168.188 149.887 172.608C148.17 174.396 146.048 175.748 143.699 176.552L125.004 195.044L116.482 186.117L135.819 168.838C136.586 166.483 137.907 164.345 139.673 162.602L139.672 162.6Z" fill="url(#paint0_linear_45_357)"/>
<path d="M79.8743 147.339L99.4782 190.678L130.783 173.792L141.986 179.717C141.986 179.717 116.398 222.351 98.8731 217.497C81.3481 212.644 50.2365 168.638 55.8426 155.056C61.4486 141.474 79.8757 147.339 79.8757 147.339L79.8743 147.339Z" fill="url(#paint1_linear_45_357)"/>
<path d="M71.2782 436.171H85.573L92.3729 381.229H71.2754L71.2782 436.171Z" fill="url(#paint2_linear_45_357)"/>
<path d="M120.254 435.849C120.699 436.596 120.934 439.007 120.934 439.875C120.934 441.157 120.423 442.387 119.513 443.293C118.603 444.2 117.37 444.71 116.083 444.71H71.8134C71.3788 444.71 70.9485 444.625 70.5469 444.459C70.1454 444.293 69.7806 444.05 69.4733 443.744C69.1659 443.438 68.9222 443.074 68.7558 442.674C68.5895 442.274 68.5039 441.845 68.5039 441.412V439.576C68.5039 439.576 66.3127 434.056 70.8224 427.249C70.8224 427.249 76.4264 432.576 84.7991 424.232L87.2681 419.775L105.142 432.801L115.049 434.016C117.216 434.282 119.138 433.975 120.253 435.848L120.254 435.849Z" fill="#2F2E41"/>
<path d="M82.0957 150.12L82.3849 130.907L70.4955 123.521L57.5671 139.281L82.0957 150.12Z" fill="url(#paint3_linear_45_357)"/>
<path d="M82.1332 136.886C93.8112 136.886 103.278 127.452 103.278 115.815C103.278 104.178 93.8112 94.7441 82.1332 94.7441C70.4552 94.7441 60.9883 104.178 60.9883 115.815C60.9883 127.452 70.4552 136.886 82.1332 136.886Z" fill="url(#paint4_linear_45_357)"/>
<path d="M110.971 277.164L91.2734 410.732H66.5603L69.8464 334.488L71.5761 294.398L66.5574 275.315C64.9647 272.275 63.5577 269.142 62.3439 265.932C60.1724 260.13 58.4562 253.174 61.0008 249.872C61.9374 248.657 64.3733 247.759 67.6835 247.086C69.9714 246.643 72.2803 246.315 74.6015 246.105C89.2157 244.663 110.004 245.564 110.004 245.564L110.532 262.942L110.826 272.646L110.971 277.164Z" fill="#2F2E41"/>
<path d="M46.1023 429.639L60.2451 431.71L74.9929 378.336L54.1195 375.28L46.1023 429.639Z" fill="url(#paint5_linear_45_357)"/>
<path d="M94.6006 436.419C94.9321 437.223 94.8127 439.641 94.6854 440.504C94.4982 441.773 93.8129 442.915 92.7804 443.68C91.7479 444.446 90.4527 444.771 89.1797 444.584L45.383 438.164C44.9529 438.101 44.5394 437.955 44.1663 437.733C43.7931 437.51 43.4675 437.217 43.2081 436.87C42.9487 436.522 42.7605 436.127 42.6544 435.707C42.5482 435.287 42.5262 434.85 42.5895 434.421L42.8574 432.604C42.8574 432.604 41.4967 426.828 46.9501 420.748C46.9501 420.748 51.7164 426.831 61.2186 419.789L64.3126 415.737L80.0945 431.215L89.7191 433.854C91.8248 434.43 93.7708 434.407 94.6006 436.419Z" fill="#2F2E41"/>
<path d="M111.281 254.887L108.579 278.073L93.8452 326.931L69.5909 407.367L45.1436 403.787L67.0851 289.418L64.9129 269.806C64.9129 269.806 64.206 267.857 63.3946 265.003C61.7851 259.357 59.7656 250.162 61.9872 245.472C62.2642 244.861 62.6514 244.306 63.1295 243.834C64.0032 242.989 65.7788 242.477 68.1581 242.205C78.1021 241.085 98.5812 244.288 107.693 245.861L111.281 254.887L111.281 254.887Z" fill="#2F2E41"/>
<path d="M60.2855 135.217L84.3066 146.707C84.3066 146.707 109.769 221.87 109.769 225.7C109.769 229.529 116.975 231.924 112.652 236.232C108.328 240.541 120.699 244.192 114.033 247.631C107.368 251.071 65.782 269.898 61.1606 268.199C48.4075 263.517 61.7013 246.313 61.7013 246.313C61.7013 246.313 52.1185 238.621 53.5598 234.794C55.0011 230.967 44.9121 157.717 44.9121 157.717L60.2855 135.217Z" fill="url(#paint6_linear_45_357)"/>
<path d="M80.8414 120.862L83.5614 126.286C83.5614 126.286 86.2814 116.529 90.63 114.361C94.9786 112.193 95.5257 108.938 95.5257 108.938C95.5257 108.938 100.968 115.981 104.773 114.361C108.577 112.741 110.216 111.651 105.861 105.147C101.506 98.6424 102.597 101.895 102.597 101.895C102.597 101.895 98.7892 96.4708 99.3335 98.1C99.8778 99.7292 96.0699 93.7638 96.0699 95.3895C96.0699 97.0152 93.35 92.1374 93.35 93.7631C93.35 95.3888 81.9272 89.9686 83.5593 92.1367C85.1914 94.3048 73.7672 87.7984 68.3315 96.4686C62.8958 105.139 55.3501 103.537 58.0333 108.947C60.7165 114.356 59.6301 128.993 59.6301 128.993H67.1298C67.1298 128.993 74.8586 114.358 80.8428 120.862H80.8414Z" fill="#090814"/>
<path d="M561.1 220.963H250.126C248.826 220.962 247.581 220.447 246.662 219.531C245.744 218.616 245.227 217.375 245.226 216.08V81.3176C245.227 80.023 245.744 78.7818 246.662 77.8664C247.581 76.951 248.826 76.4361 250.126 76.4348H561.1C562.4 76.4361 563.645 76.951 564.564 77.8664C565.482 78.7818 565.999 80.023 566 81.3176V216.08C565.999 217.374 565.482 218.615 564.564 219.531C563.645 220.446 562.4 220.962 561.1 220.963ZM250.126 78.3881C249.346 78.389 248.599 78.698 248.048 79.2471C247.497 79.7963 247.187 80.5409 247.186 81.3176V216.08C247.187 216.856 247.497 217.601 248.048 218.15C248.599 218.699 249.346 219.008 250.126 219.009H561.1C561.88 219.008 562.627 218.699 563.178 218.15C563.729 217.601 564.039 216.856 564.04 216.08V81.3176C564.039 80.5409 563.729 79.7963 563.178 79.2471C562.627 78.698 561.88 78.389 561.1 78.3881H250.126Z" fill="#E6E6E6"/>
<path d="M262.865 93.0356C262.085 93.0356 261.338 93.3443 260.786 93.8937C260.235 94.4431 259.925 95.1882 259.925 95.9652C259.925 96.7421 260.235 97.4873 260.786 98.0367C261.338 98.5861 262.085 98.8947 262.865 98.8947H304.023C304.803 98.8947 305.551 98.5861 306.102 98.0367C306.653 97.4873 306.963 96.7421 306.963 95.9652C306.963 95.1882 306.653 94.4431 306.102 93.8937C305.551 93.3443 304.803 93.0356 304.023 93.0356H262.865Z" fill="#E6E6E6"/>
<path d="M544.63 113.409V167.735H267.084V139.133C269.006 137.903 270.939 136.679 272.89 135.495C281.223 130.414 290.138 125.662 299.861 123.901C304.458 123.047 309.169 122.988 313.786 123.728C318.664 124.53 323.329 126.205 327.954 127.884C332.511 129.547 337.081 131.265 341.848 132.226C346.494 133.134 351.263 133.228 355.94 132.503C364.864 131.168 373.249 127.594 381.599 124.361C390.001 121.111 398.658 118.039 407.753 117.634C416.73 117.23 425.596 119.343 434.114 121.965C451.48 127.306 469.213 135.228 487.602 129.794C506.275 124.286 523.451 108.381 544.145 113.1C544.341 113.136 544.515 113.246 544.633 113.406L544.63 113.409Z" fill="#D6D6E3"/>
<path d="M544.631 114.358C544.543 114.523 544.401 114.654 544.228 114.73C544.056 114.805 543.863 114.82 543.681 114.773C541.215 114.21 538.689 113.949 536.16 113.998C515.803 114.356 500.154 130.685 480.248 133.128C462.303 135.328 445.412 126.632 428.54 122.088C419.775 119.726 410.734 118.474 401.712 120.079C392.76 121.666 384.358 125.316 375.922 128.555C367.798 131.673 359.356 134.572 350.561 134.716C340.89 134.877 332.183 130.905 323.212 127.879C318.547 126.303 313.761 125.056 308.819 124.934C304.002 124.876 299.209 125.616 294.634 127.122C285.103 130.142 276.516 135.524 268.155 140.871C268.011 140.972 267.836 141.019 267.66 141.004C267.48 140.98 267.311 140.901 267.176 140.779C267.041 140.658 266.947 140.498 266.905 140.321C266.864 140.144 266.877 139.959 266.944 139.79C267.01 139.621 267.127 139.477 267.278 139.375L267.66 139.133C269.578 137.903 271.508 136.679 273.456 135.495C281.771 130.414 290.671 125.662 300.371 123.901C304.958 123.047 309.658 122.989 314.265 123.728C319.133 124.53 323.791 126.205 328.402 127.884C332.951 129.547 337.511 131.265 342.268 132.226C346.904 133.134 351.663 133.228 356.331 132.503C365.237 131.168 373.604 127.594 381.936 124.361C390.32 121.111 398.959 118.039 408.033 117.634C416.991 117.23 425.839 119.343 434.339 121.965C451.67 127.306 469.365 135.228 487.716 129.794C506.35 124.286 523.49 108.381 544.14 113.1C544.336 113.136 544.51 113.246 544.627 113.406C544.718 113.548 544.767 113.713 544.768 113.881C544.768 114.05 544.721 114.215 544.631 114.358Z" fill="url(#paint7_linear_45_357)"/>
<path d="M305.327 128.474C307.567 128.474 309.383 126.664 309.383 124.432C309.383 122.2 307.567 120.39 305.327 120.39C303.087 120.39 301.271 122.2 301.271 124.432C301.271 126.664 303.087 128.474 305.327 128.474Z" fill="url(#paint8_linear_45_357)"/>
<path d="M407.885 123.278C410.125 123.278 411.941 121.468 411.941 119.236C411.941 117.004 410.125 115.194 407.885 115.194C405.645 115.194 403.829 117.004 403.829 119.236C403.829 121.468 405.645 123.278 407.885 123.278Z" fill="url(#paint9_linear_45_357)"/>
<path d="M520.744 127.438C522.984 127.438 524.8 125.629 524.8 123.396C524.8 121.164 522.984 119.355 520.744 119.355C518.504 119.355 516.688 121.164 516.688 123.396C516.688 125.629 518.504 127.438 520.744 127.438Z" fill="url(#paint10_linear_45_357)"/>
<path d="M303.043 190.689C302.264 190.689 301.516 190.998 300.965 191.547C300.413 192.096 300.104 192.842 300.104 193.618C300.104 194.395 300.413 195.141 300.965 195.69C301.516 196.239 302.264 196.548 303.043 196.548H344.201C344.981 196.548 345.729 196.239 346.28 195.69C346.831 195.141 347.141 194.395 347.141 193.618C347.141 192.842 346.831 192.096 346.28 191.547C345.729 190.998 344.981 190.689 344.201 190.689H303.043Z" fill="#E6E6E6"/>
<path d="M276.585 204.36C282.718 204.36 287.691 199.405 287.691 193.293C287.691 187.181 282.718 182.226 276.585 182.226C270.451 182.226 265.479 187.181 265.479 193.293C265.479 199.405 270.451 204.36 276.585 204.36Z" fill="url(#paint11_linear_45_357)"/>
<path d="M402.346 190.689C401.566 190.689 400.819 190.998 400.267 191.547C399.716 192.096 399.406 192.842 399.406 193.618C399.406 194.395 399.716 195.141 400.267 195.69C400.819 196.239 401.566 196.548 402.346 196.548H443.504C444.284 196.548 445.032 196.239 445.583 195.69C446.134 195.141 446.444 194.395 446.444 193.618C446.444 192.842 446.134 192.096 445.583 191.547C445.032 190.998 444.284 190.689 443.504 190.689H402.346Z" fill="#E6E6E6"/>
<path d="M375.887 204.36C382.021 204.36 386.993 199.405 386.993 193.293C386.993 187.181 382.021 182.226 375.887 182.226C369.753 182.226 364.781 187.181 364.781 193.293C364.781 199.405 369.753 204.36 375.887 204.36Z" fill="url(#paint12_linear_45_357)"/>
<path d="M501.649 190.689C500.87 190.689 500.122 190.998 499.571 191.547C499.019 192.096 498.709 192.842 498.709 193.618C498.709 194.395 499.019 195.141 499.571 195.69C500.122 196.239 500.87 196.548 501.649 196.548H542.807C543.587 196.548 544.335 196.239 544.886 195.69C545.437 195.141 545.747 194.395 545.747 193.618C545.747 192.842 545.437 192.096 544.886 191.547C544.335 190.998 543.587 190.689 542.807 190.689H501.649Z" fill="#E6E6E6"/>
<path d="M475.19 204.36C481.324 204.36 486.296 199.405 486.296 193.293C486.296 187.181 481.324 182.226 475.19 182.226C469.056 182.226 464.084 187.181 464.084 193.293C464.084 199.405 469.056 204.36 475.19 204.36Z" fill="url(#paint13_linear_45_357)"/>
<path d="M294.171 40.9125H140.747C137.757 40.9125 135.333 39.1917 135.329 37.0715V3.84223C135.329 1.72203 137.757 0.0012207 140.747 0.0012207H294.171C297.162 0.0012207 299.586 1.72203 299.589 3.84223V37.0708C299.586 39.191 297.162 40.9097 294.171 40.9125ZM140.747 1.53606C138.953 1.53606 137.496 2.56869 137.496 3.84081V37.0694C137.496 38.3415 138.952 39.3727 140.747 39.3741H294.171C295.966 39.3741 297.423 38.3415 297.423 37.0694V3.84223C297.423 2.57011 295.967 1.53889 294.171 1.53748L140.747 1.53606Z" fill="#E6E6E6"/>
<path d="M175.438 18.8848C174.572 18.8859 173.742 19.2292 173.13 19.8394C172.518 20.4495 172.173 21.2768 172.172 22.1397V44.9258C172.173 45.7888 172.518 46.616 173.13 47.2262C173.742 47.8364 174.572 48.1797 175.438 48.1808H292.38C293.246 48.1797 294.077 47.8364 294.689 47.2262C295.301 46.616 295.646 45.7888 295.647 44.9258V22.1397C295.646 21.2768 295.301 20.4495 294.689 19.8394C294.077 19.2292 293.246 18.8859 292.38 18.8848H175.438Z" fill="url(#paint14_linear_45_357)"/>
<path d="M191.772 41.0197C195.741 41.0197 198.959 37.8134 198.959 33.8582C198.959 29.9031 195.741 26.6968 191.772 26.6968C187.803 26.6968 184.585 29.9031 184.585 33.8582C184.585 37.8134 187.803 41.0197 191.772 41.0197Z" fill="white"/>
<path d="M224.523 30.7493C223.743 30.7493 222.995 31.0579 222.444 31.6073C221.893 32.1567 221.583 32.9018 221.583 33.6788C221.583 34.4558 221.893 35.2009 222.444 35.7503C222.995 36.2997 223.743 36.6083 224.523 36.6083H265.681C266.461 36.6083 267.208 36.2997 267.76 35.7503C268.311 35.2009 268.621 34.4558 268.621 33.6788C268.621 32.9018 268.311 32.1567 267.76 31.6073C267.208 31.0579 266.461 30.7493 265.681 30.7493H224.523Z" fill="white"/>
<path d="M369.745 295.119H216.321C213.33 295.119 210.907 293.398 210.903 291.278V258.049C210.903 255.928 213.33 254.208 216.321 254.208H369.745C372.736 254.208 375.159 255.928 375.163 258.049V291.277C375.16 293.397 372.736 295.116 369.745 295.119ZM216.321 255.742C214.526 255.742 213.07 256.775 213.07 258.047V291.276C213.07 292.548 214.526 293.579 216.321 293.58H369.745C371.54 293.58 372.996 292.548 372.996 291.276V258.049C372.996 256.776 371.54 255.745 369.745 255.744L216.321 255.742Z" fill="#E6E6E6"/>
<path d="M251.013 273.091C250.147 273.092 249.317 273.435 248.704 274.046C248.092 274.656 247.747 275.483 247.746 276.346V299.132C247.747 299.995 248.092 300.822 248.704 301.432C249.317 302.043 250.147 302.386 251.013 302.387H367.955C368.821 302.386 369.651 302.043 370.263 301.432C370.876 300.822 371.22 299.995 371.221 299.132V276.346C371.22 275.483 370.876 274.656 370.263 274.046C369.651 273.435 368.821 273.092 367.955 273.091H251.013Z" fill="url(#paint15_linear_45_357)"/>
<path d="M267.346 295.226C271.315 295.226 274.532 292.02 274.532 288.065C274.532 284.11 271.315 280.903 267.346 280.903C263.377 280.903 260.159 284.11 260.159 288.065C260.159 292.02 263.377 295.226 267.346 295.226Z" fill="white"/>
<path d="M300.097 284.956C299.318 284.956 298.57 285.265 298.019 285.814C297.467 286.363 297.157 287.109 297.157 287.886C297.157 288.663 297.467 289.408 298.019 289.957C298.57 290.506 299.318 290.815 300.097 290.815H341.255C342.035 290.815 342.783 290.506 343.334 289.957C343.885 289.408 344.195 288.663 344.195 287.886C344.195 287.109 343.885 286.363 343.334 285.814C342.783 285.265 342.035 284.956 341.255 284.956H300.097Z" fill="white"/>
<path d="M162.547 222.894L128.134 197.921C127.538 197.487 127.139 196.835 127.023 196.109C126.908 195.383 127.086 194.641 127.518 194.046C129.279 178.231 143.727 162.755 161.537 147.369C161.97 146.775 162.623 146.377 163.351 146.263C164.079 146.149 164.824 146.328 165.421 146.76L199.831 171.733C200.428 172.167 200.827 172.819 200.943 173.545C201.058 174.271 200.88 175.013 200.448 175.608C186.001 190.246 174.422 205.734 166.431 222.285C165.997 222.879 165.344 223.276 164.616 223.39C163.888 223.504 163.144 223.326 162.547 222.894Z" fill="#D6D6E3"/>
<path d="M198.276 172.963L187.8 165.361C181.411 160.754 173.459 158.852 165.678 160.072C157.898 161.291 150.922 165.532 146.275 171.869L129.632 194.701C129.385 195.039 129.284 195.462 129.349 195.875C129.415 196.288 129.642 196.659 129.981 196.906L163.24 221.039C163.58 221.285 164.003 221.386 164.418 221.321C164.832 221.255 165.203 221.029 165.45 220.69C172.272 203.612 183.662 188.586 198.626 175.166C198.872 174.828 198.973 174.406 198.908 173.993C198.842 173.58 198.615 173.21 198.276 172.963Z" fill="white"/>
<path d="M156.967 205.488L150.146 200.538C150.057 200.473 149.955 200.426 149.848 200.4C149.74 200.374 149.628 200.37 149.519 200.387C149.41 200.404 149.305 200.442 149.21 200.5C149.116 200.558 149.034 200.633 148.969 200.722C148.904 200.812 148.857 200.913 148.831 201.02C148.806 201.127 148.801 201.239 148.819 201.348C148.836 201.457 148.875 201.561 148.932 201.656C148.99 201.75 149.066 201.832 149.156 201.897L155.976 206.847C156.157 206.978 156.383 207.032 156.604 206.998C156.825 206.963 157.022 206.842 157.154 206.662C157.285 206.482 157.339 206.257 157.304 206.037C157.269 205.817 157.148 205.619 156.967 205.488Z" fill="#CCCCCC"/>
<path d="M167.682 207.543L152.703 196.672C152.523 196.541 152.297 196.487 152.076 196.521C151.855 196.556 151.658 196.677 151.526 196.857C151.395 197.037 151.341 197.262 151.376 197.482C151.411 197.702 151.532 197.9 151.713 198.031L166.692 208.902C166.873 209.033 167.099 209.087 167.319 209.053C167.54 209.018 167.738 208.898 167.869 208.717C168.001 208.537 168.055 208.312 168.02 208.092C167.985 207.872 167.863 207.674 167.682 207.543Z" fill="#CCCCCC"/>
<path d="M142.283 189.542C139.336 190.383 137.634 193.448 138.481 196.389C139.329 199.33 142.405 201.033 145.353 200.192C148.3 199.351 150.002 196.285 149.154 193.345C148.307 190.404 145.23 188.701 142.283 189.542Z" fill="url(#paint16_linear_45_357)"/>
<path d="M165.084 196.325L146.686 182.972C146.504 182.868 146.291 182.834 146.087 182.878C145.882 182.921 145.701 183.038 145.579 183.207C145.456 183.375 145.4 183.583 145.421 183.791C145.443 183.998 145.541 184.19 145.695 184.33L164.094 197.685C164.275 197.789 164.489 197.823 164.693 197.78C164.898 197.737 165.08 197.619 165.203 197.45C165.325 197.281 165.381 197.073 165.359 196.865C165.338 196.658 165.239 196.465 165.084 196.325Z" fill="#CCCCCC"/>
<path d="M174.94 197.756L149.262 179.121C149.081 179.013 148.865 178.976 148.658 179.018C148.451 179.061 148.267 179.178 148.143 179.349C148.019 179.519 147.963 179.729 147.986 179.939C148.01 180.148 148.11 180.342 148.269 180.481L173.95 199.115C174.132 199.22 174.345 199.254 174.55 199.21C174.755 199.167 174.936 199.05 175.059 198.881C175.182 198.712 175.238 198.504 175.216 198.296C175.194 198.088 175.096 197.896 174.94 197.756Z" fill="#CCCCCC"/>
<path d="M171.808 187.111L153.41 173.757C153.228 173.653 153.015 173.62 152.811 173.663C152.606 173.707 152.425 173.824 152.302 173.992C152.18 174.161 152.124 174.369 152.145 174.576C152.167 174.784 152.264 174.976 152.419 175.116L170.817 188.47C170.999 188.575 171.213 188.609 171.417 188.565C171.622 188.522 171.803 188.405 171.926 188.236C172.049 188.067 172.105 187.859 172.083 187.651C172.061 187.443 171.963 187.251 171.808 187.111Z" fill="#CCCCCC"/>
<path d="M189.001 179.905L170.604 166.551C170.422 166.448 170.209 166.414 170.004 166.458C169.8 166.501 169.619 166.618 169.496 166.787C169.373 166.955 169.317 167.163 169.339 167.37C169.361 167.578 169.458 167.77 169.613 167.91L188.011 181.265C188.193 181.369 188.406 181.403 188.611 181.36C188.816 181.316 188.997 181.199 189.12 181.03C189.243 180.861 189.299 180.653 189.277 180.445C189.255 180.238 189.157 180.045 189.001 179.905Z" fill="url(#paint17_linear_45_357)"/>
<path d="M181.665 188.542L155.986 169.907C155.805 169.799 155.589 169.763 155.382 169.805C155.175 169.847 154.992 169.965 154.867 170.135C154.743 170.305 154.687 170.516 154.71 170.725C154.734 170.935 154.835 171.128 154.993 171.268L180.674 189.902C180.856 190.006 181.07 190.04 181.274 189.997C181.479 189.953 181.66 189.836 181.783 189.667C181.906 189.498 181.962 189.29 181.94 189.082C181.918 188.875 181.82 188.682 181.665 188.542Z" fill="#CCCCCC"/>
<path d="M133.48 201.446C139.441 199.691 145.182 201.334 146.303 205.115C147.423 208.896 143.499 213.382 137.538 215.138C135.165 215.871 132.651 216.028 130.205 215.595L104.851 222.713L101.752 210.786L127.076 205.035C128.893 203.346 131.09 202.116 133.483 201.447L133.48 201.446Z" fill="url(#paint18_linear_45_357)"/>
<path d="M88.6362 159.176L84.6623 206.549L120.257 206.93L127.165 217.53C127.165 217.53 84.0219 242.423 71.0673 229.704C58.1128 216.985 52.3498 163.459 63.8673 154.295C75.3848 145.132 88.6362 159.175 88.6362 159.175V159.176Z" fill="url(#paint19_linear_45_357)"/>
</g>
<defs>
<linearGradient id="paint0_linear_45_357" x1="135.331" y1="158.167" x2="135.331" y2="195.044" gradientUnits="userSpaceOnUse">
<stop stop-color="#ED9DA0"/>
<stop offset="1" stop-color="#A87173"/>
</linearGradient>
<linearGradient id="paint1_linear_45_357" x1="98.5813" y1="146.079" x2="98.5813" y2="217.882" gradientUnits="userSpaceOnUse">
<stop stop-color="#7E60BF"/>
<stop offset="1" stop-color="#3B2D59"/>
</linearGradient>
<linearGradient id="paint2_linear_45_357" x1="81.8242" y1="381.229" x2="81.8242" y2="436.171" gradientUnits="userSpaceOnUse">
<stop stop-color="#ED9DA0"/>
<stop offset="1" stop-color="#A87173"/>
</linearGradient>
<linearGradient id="paint3_linear_45_357" x1="69.976" y1="123.521" x2="69.976" y2="150.12" gradientUnits="userSpaceOnUse">
<stop stop-color="#ED9DA0"/>
<stop offset="1" stop-color="#A87173"/>
</linearGradient>
<linearGradient id="paint4_linear_45_357" x1="82.1332" y1="94.7441" x2="82.1332" y2="136.886" gradientUnits="userSpaceOnUse">
<stop stop-color="#ED9DA0"/>
<stop offset="1" stop-color="#A87173"/>
</linearGradient>
<linearGradient id="paint5_linear_45_357" x1="60.5476" y1="375.28" x2="60.5476" y2="431.71" gradientUnits="userSpaceOnUse">
<stop stop-color="#ED9DA0"/>
<stop offset="1" stop-color="#A87173"/>
</linearGradient>
<linearGradient id="paint6_linear_45_357" x1="80.4806" y1="135.217" x2="80.4806" y2="268.307" gradientUnits="userSpaceOnUse">
<stop stop-color="#7E60BF"/>
<stop offset="1" stop-color="#3B2D59"/>
</linearGradient>
<linearGradient id="paint7_linear_45_357" x1="405.825" y1="112.237" x2="405.825" y2="141.007" gradientUnits="userSpaceOnUse">
<stop stop-color="#7E60BF"/>
<stop offset="1" stop-color="#3B2D59"/>
</linearGradient>
<linearGradient id="paint8_linear_45_357" x1="305.327" y1="120.39" x2="305.327" y2="128.474" gradientUnits="userSpaceOnUse">
<stop stop-color="#7E60BF"/>
<stop offset="1" stop-color="#3B2D59"/>
</linearGradient>
<linearGradient id="paint9_linear_45_357" x1="407.885" y1="115.194" x2="407.885" y2="123.278" gradientUnits="userSpaceOnUse">
<stop stop-color="#7E60BF"/>
<stop offset="1" stop-color="#3B2D59"/>
</linearGradient>
<linearGradient id="paint10_linear_45_357" x1="520.744" y1="119.355" x2="520.744" y2="127.438" gradientUnits="userSpaceOnUse">
<stop stop-color="#7E60BF"/>
<stop offset="1" stop-color="#3B2D59"/>
</linearGradient>
<linearGradient id="paint11_linear_45_357" x1="276.585" y1="182.226" x2="276.585" y2="204.36" gradientUnits="userSpaceOnUse">
<stop stop-color="#7E60BF"/>
<stop offset="1" stop-color="#3B2D59"/>
</linearGradient>
<linearGradient id="paint12_linear_45_357" x1="375.887" y1="182.226" x2="375.887" y2="204.36" gradientUnits="userSpaceOnUse">
<stop stop-color="#7E60BF"/>
<stop offset="1" stop-color="#3B2D59"/>
</linearGradient>
<linearGradient id="paint13_linear_45_357" x1="475.19" y1="182.226" x2="475.19" y2="204.36" gradientUnits="userSpaceOnUse">
<stop stop-color="#7E60BF"/>
<stop offset="1" stop-color="#3B2D59"/>
</linearGradient>
<linearGradient id="paint14_linear_45_357" x1="233.909" y1="18.8848" x2="233.909" y2="48.1808" gradientUnits="userSpaceOnUse">
<stop stop-color="#7E60BF"/>
<stop offset="1" stop-color="#3B2D59"/>
</linearGradient>
<linearGradient id="paint15_linear_45_357" x1="309.484" y1="273.091" x2="309.484" y2="302.387" gradientUnits="userSpaceOnUse">
<stop stop-color="#7E60BF"/>
<stop offset="1" stop-color="#3B2D59"/>
</linearGradient>
<linearGradient id="paint16_linear_45_357" x1="145.353" y1="200.192" x2="142.312" y2="189.534" gradientUnits="userSpaceOnUse">
<stop stop-color="#7E60BF"/>
<stop offset="1" stop-color="#3B2D59"/>
</linearGradient>
<linearGradient id="paint17_linear_45_357" x1="182" y1="183.248" x2="176.667" y2="164.555" gradientUnits="userSpaceOnUse">
<stop stop-color="#7E60BF"/>
<stop offset="1" stop-color="#3B2D59"/>
</linearGradient>
<linearGradient id="paint18_linear_45_357" x1="124.123" y1="200.743" x2="124.123" y2="222.713" gradientUnits="userSpaceOnUse">
<stop stop-color="#ED9DA0"/>
<stop offset="1" stop-color="#A87173"/>
</linearGradient>
<linearGradient id="paint19_linear_45_357" x1="92.4165" y1="151.191" x2="92.4165" y2="233.323" gradientUnits="userSpaceOnUse">
<stop stop-color="#7E60BF"/>
<stop offset="1" stop-color="#3B2D59"/>
</linearGradient>
<clipPath id="clip0_45_357">
<rect width="566" height="448" fill="white"/>
</clipPath>
</defs>
</svg>
