<svg width="28" height="28" viewBox="0 0 28 28" fill="none" xmlns="http://www.w3.org/2000/svg">
<path d="M19.8334 24.5V22.1667C19.8334 20.929 19.3417 19.742 18.4666 18.8668C17.5914 17.9917 16.4044 17.5 15.1667 17.5H5.83341C4.59574 17.5 3.40875 17.9917 2.53358 18.8668C1.65841 19.742 1.16675 20.929 1.16675 22.1667V24.5" stroke="#F2F0FB" stroke-width="2" stroke-linecap="round" stroke-linejoin="round"/>
<path d="M10.4999 12.8333C13.0772 12.8333 15.1666 10.744 15.1666 8.16667C15.1666 5.58934 13.0772 3.5 10.4999 3.5C7.92259 3.5 5.83325 5.58934 5.83325 8.16667C5.83325 10.744 7.92259 12.8333 10.4999 12.8333Z" stroke="#F2F0FB" stroke-width="2" stroke-linecap="round" stroke-linejoin="round"/>
<path d="M26.8333 24.5002V22.1669C26.8325 21.1329 26.4883 20.1284 25.8548 19.3112C25.2214 18.494 24.3344 17.9104 23.3333 17.6519" stroke="#F2F0FB" stroke-width="2" stroke-linecap="round" stroke-linejoin="round"/>
<path d="M18.6667 3.65186C19.6706 3.90887 20.5603 4.49267 21.1957 5.31122C21.831 6.12976 22.1759 7.13649 22.1759 8.17269C22.1759 9.20889 21.831 10.2156 21.1957 11.0342C20.5603 11.8527 19.6706 12.4365 18.6667 12.6935" stroke="#F2F0FB" stroke-width="2" stroke-linecap="round" stroke-linejoin="round"/>
</svg>
