<svg width="42" height="42" viewBox="0 0 42 42" fill="none" xmlns="http://www.w3.org/2000/svg">
<path d="M28.7204 7.09403C30.3585 7.09403 31.9295 7.74493 33.0878 8.90354C34.2461 10.0622 34.8968 11.6336 34.8968 13.2721M41.0733 13.2721C41.0735 15.0743 40.6797 16.8547 39.9193 18.4885C39.159 20.1223 38.0505 21.57 36.6717 22.73C35.2929 23.89 33.677 24.7343 31.9375 25.2037C30.198 25.673 28.3769 25.7561 26.6019 25.447C25.4428 25.2472 24.2157 25.5005 23.384 26.3325L17.9117 31.8063H13.2793V36.4398H8.64702V41.0734H0.926483V35.2701C0.926483 34.0407 1.41442 32.8607 2.28324 31.9937L15.6634 18.6099C16.4952 17.778 16.7484 16.5506 16.5487 15.3912C16.2568 13.7049 16.3182 11.9764 16.7291 10.3151C17.1401 8.6538 17.8915 7.09602 18.9359 5.74047C19.9802 4.38491 21.2947 3.26114 22.796 2.44037C24.2973 1.6196 25.9527 1.11974 27.6573 0.972452C29.3619 0.825166 31.0784 1.03367 32.6982 1.58476C34.318 2.13585 35.8057 3.01749 37.067 4.17383C38.3282 5.33016 39.3356 6.73596 40.0253 8.30214C40.7149 9.86832 41.0718 11.5607 41.0733 13.2721Z" stroke="black" stroke-width="1.84642" stroke-linecap="round" stroke-linejoin="round"/>
</svg>
