<svg width="50" height="91" viewBox="0 0 50 91" fill="none" xmlns="http://www.w3.org/2000/svg">
<path d="M49.254 91H0V8.70869C0.00264112 6.39981 0.921241 4.18627 2.5543 2.55365C4.18736 0.921023 6.40153 0.00264041 8.71102 0H40.543C42.8525 0.00264041 45.0666 0.921023 46.6997 2.55365C48.3328 4.18627 49.2514 6.39981 49.254 8.70869V91ZM1.93578 89.0647H47.3182V8.70869C47.3162 6.91288 46.6017 5.19121 45.3316 3.92138C44.0614 2.65155 42.3393 1.93728 40.543 1.93526H8.71102C6.91474 1.93728 5.1926 2.65155 3.92243 3.92138C2.65226 5.19121 1.9378 6.91288 1.93578 8.70869V89.0647Z" fill="#3F3D56"/>
</svg>
