<svg width="32" height="32" viewBox="0 0 32 32" fill="none" xmlns="http://www.w3.org/2000/svg">
<path d="M32 16.0966C31.9989 7.20666 24.8365 0 16 0C7.16351 0 0 7.20773 0 16.0988C0 24.102 5.80421 30.7407 13.4073 31.9871L13.4991 32V20.7515H9.43612V16.0966H13.4991V12.5518C13.4788 12.3725 13.4681 12.1643 13.4681 11.9538C13.4681 8.81589 15.9968 6.27161 19.1155 6.27161C19.2659 6.27161 19.4153 6.27805 19.5636 6.28878L19.5444 6.28771C20.8237 6.30596 22.0613 6.41975 23.2691 6.62265L23.1262 6.60225V10.5636H21.1075C21.0157 10.5507 20.9101 10.5432 20.8034 10.5432C19.5263 10.5432 18.4903 11.5845 18.4903 12.8706C18.4903 12.9436 18.4935 13.0156 18.4999 13.0875L18.4988 13.0778V16.0966H22.9362L22.2267 20.7515H18.4988V32C26.1947 30.7397 31.9989 24.0998 32 16.0966Z" fill="white"/>
</svg>
