<svg width="43" height="45" viewBox="0 0 43 45" fill="none" xmlns="http://www.w3.org/2000/svg">
<path d="M0.977225 45C0.785936 45 0.59884 44.9439 0.439156 44.8386C0.279471 44.7333 0.154229 44.5834 0.078922 44.4076C0.00361464 44.2318 -0.0184396 44.0378 0.015518 43.8496C0.0494757 43.6614 0.137939 43.4874 0.269939 43.349L41.3011 0.303027C41.4799 0.11543 41.726 0.00652315 41.9851 0.000283596C42.2442 -0.00595596 42.4952 0.0909799 42.6829 0.269753C42.8705 0.448526 42.9795 0.694471 42.9857 0.953534C42.9919 1.2126 42.895 1.46355 42.7161 1.65115L1.68475 44.697C1.59356 44.7929 1.48379 44.8691 1.36215 44.9212C1.24051 44.9733 1.10955 45.0002 0.977225 45Z" fill="#3F3D56"/>
</svg>
