<svg width="15" height="16" viewBox="0 0 15 16" fill="none" xmlns="http://www.w3.org/2000/svg">
<path d="M14.3474 12.6873C14.3474 12.9539 14.2923 13.2279 14.1752 13.4945C14.0581 13.7611 13.9066 14.0128 13.7069 14.2498C13.3695 14.6497 12.9976 14.9384 12.5776 15.1236C12.1644 15.3087 11.7168 15.405 11.2347 15.405C10.5323 15.405 9.78171 15.2272 8.98978 14.8644C8.19784 14.5016 7.40591 14.0128 6.62087 13.3982C5.82894 12.7762 5.07832 12.0875 4.36214 11.3248C3.65284 10.5547 3.01241 9.74757 2.44084 8.90341C1.87616 8.05924 1.42166 7.21507 1.09112 6.37831C0.760572 5.53415 0.5953 4.72701 0.5953 3.95689C0.5953 3.45336 0.677936 2.97203 0.843209 2.52774C1.00848 2.07603 1.27016 1.66136 1.63514 1.29111C2.07587 0.824595 2.55791 0.595041 3.0675 0.595041C3.26032 0.595041 3.45314 0.639471 3.6253 0.728331C3.80434 0.81719 3.96273 0.950479 4.08669 1.14301L5.68432 3.56443C5.80828 3.74955 5.8978 3.91987 5.95978 4.08278C6.02175 4.23828 6.05619 4.39379 6.05619 4.53448C6.05619 4.7122 6.00798 4.88992 5.91157 5.06023C5.82205 5.23055 5.69121 5.40826 5.52594 5.58598L5.00257 6.17097C4.92682 6.25243 4.89239 6.34869 4.89239 6.46717C4.89239 6.52641 4.89928 6.57825 4.91305 6.63749C4.93371 6.69673 4.95437 6.74116 4.96814 6.78559C5.09209 7.02995 5.30557 7.34836 5.60857 7.73342C5.91846 8.11848 6.249 8.51094 6.60709 8.90341C6.97896 9.29587 7.33705 9.65871 7.70203 9.99193C8.06012 10.3178 8.35623 10.5399 8.59037 10.6732C8.6248 10.688 8.66612 10.7102 8.71432 10.7324C8.76941 10.7546 8.8245 10.762 8.88648 10.762C9.00355 10.762 9.09307 10.7176 9.16882 10.6362L9.69218 10.0808C9.86434 9.89567 10.0296 9.75498 10.188 9.66612C10.3464 9.56245 10.5048 9.51061 10.6769 9.51061C10.8078 9.51061 10.9455 9.54023 11.097 9.60688C11.2485 9.67352 11.4069 9.76979 11.579 9.89567L13.8584 11.6358C14.0375 11.7691 14.1614 11.9246 14.2372 12.1098C14.306 12.2949 14.3474 12.48 14.3474 12.6873Z" stroke="white" stroke-width="1.12571" stroke-miterlimit="10"/>
</svg>
