<svg width="48" height="48" viewBox="0 0 48 48" fill="none" xmlns="http://www.w3.org/2000/svg">
<rect width="48" height="48" rx="2.29891" fill="#3D306C"/>
<path d="M22.6667 27.3341C22.6667 29.1741 25.652 30.6675 29.3333 30.6675C33.0147 30.6675 36 29.1741 36 27.3341M12 20.6675C12 22.5075 14.9853 24.0008 18.6667 24.0008C20.168 24.0008 21.5533 23.7528 22.6667 23.3341M12 25.3341C12 27.1741 14.9853 28.6675 18.6667 28.6675C20.168 28.6675 21.552 28.4195 22.6667 28.0008M29.3333 25.3341C25.652 25.3341 22.6667 23.8408 22.6667 22.0008C22.6667 20.1608 25.652 18.6675 29.3333 18.6675C33.0147 18.6675 36 20.1608 36 22.0008C36 23.8408 33.0147 25.3341 29.3333 25.3341Z" stroke="white" stroke-linecap="round" stroke-linejoin="round"/>
<path d="M12 15.3335V30.0002C12 31.8402 14.9853 33.3335 18.6667 33.3335C20.168 33.3335 21.552 33.0855 22.6667 32.6668M22.6667 32.6668V22.0002M22.6667 32.6668C22.6667 34.5068 25.652 36.0002 29.3333 36.0002C33.0147 36.0002 36 34.5068 36 32.6668V22.0002M25.3333 19.3335V15.3335" stroke="white" stroke-linecap="round" stroke-linejoin="round"/>
<path d="M18.6667 18.6669C14.9853 18.6669 12 17.1736 12 15.3336C12 13.4936 14.9853 12.0002 18.6667 12.0002C22.348 12.0002 25.3333 13.4936 25.3333 15.3336C25.3333 17.1736 22.348 18.6669 18.6667 18.6669Z" stroke="white" stroke-linecap="round" stroke-linejoin="round"/>
</svg>
