<svg width="26" height="24" viewBox="0 0 26 24" fill="none" xmlns="http://www.w3.org/2000/svg">
<path d="M25.0249 23.9323C24.7814 23.9326 24.5466 23.8414 24.3672 23.6767L0.319036 1.69561C0.224147 1.60936 0.147179 1.50521 0.0926139 1.38918C0.0380492 1.27314 0.00693566 1.14747 0.00103331 1.01939C-0.00486904 0.891304 0.0145573 0.763308 0.0582191 0.64275C0.101881 0.522192 0.168929 0.411475 0.255483 0.316861C0.342038 0.222246 0.446434 0.145605 0.562656 0.0913911C0.678879 0.0371772 0.804655 0.00643584 0.932787 0.000905882C1.06092 -0.00462408 1.18888 0.0152077 1.30934 0.0592067C1.42981 0.103206 1.5404 0.170505 1.63479 0.25731L25.6831 22.2384C25.8281 22.371 25.9297 22.5443 25.9745 22.7357C26.0192 22.927 26.0051 23.1274 25.9339 23.3105C25.8628 23.4937 25.7379 23.651 25.5756 23.762C25.4134 23.8729 25.2215 23.9323 25.0249 23.9323Z" fill="#3F3D56"/>
</svg>
