<svg width="559" height="478" viewBox="0 0 559 478" fill="none" xmlns="http://www.w3.org/2000/svg">
<g clip-path="url(#clip0_45_726)">
<path d="M559 431.6H0.138184V478H559V431.6Z" fill="#D6CDE4"/>
<path d="M558.225 431.639H0V430.088H558.475L558.225 431.639Z" fill="#3F3D56"/>
<path d="M438.448 178.606V315.966H120.69V178.606C120.69 133.021 136.194 89.1613 164.027 56.0105C191.859 22.8596 229.914 2.92669 270.397 0.294628C273.43 0.0958018 276.488 -0.00239226 279.569 4.4245e-05C281.325 4.4245e-05 283.074 0.0294861 284.811 0.103143C325.123 1.53722 363.43 20.2116 391.912 52.3149C392.77 53.2797 393.615 54.2519 394.46 55.2389C422.703 88.4624 438.459 132.651 438.448 178.606Z" fill="#D6CDE4"/>
<path d="M284.811 0.103175V315.966H270.397V0.294628C273.43 0.0958018 276.488 -0.00239226 279.569 4.4245e-05C281.325 4.4245e-05 283.074 0.0294902 284.811 0.103175Z" fill="white"/>
<path d="M406.679 71.4426H152.459C156.244 65.7746 160.324 60.3639 164.678 55.2393H394.46C398.815 60.3639 402.895 65.7746 406.679 71.4426Z" fill="white"/>
<path d="M414.266 117.843H301.648V332.169H414.266V117.843Z" fill="white"/>
<path d="M340.921 154.052H323.886V173.202H340.921V154.052Z" fill="#D6CDE4"/>
<path d="M368.366 154.052H351.331V173.202H368.366V154.052Z" fill="#D6CDE4"/>
<path d="M395.811 154.052H378.776V173.202H395.811V154.052Z" fill="#D6CDE4"/>
<path d="M341.394 197.671H324.359V216.821H341.394V197.671Z" fill="#D6CDE4"/>
<path d="M368.839 197.671H351.804V216.821H368.839V197.671Z" fill="#D6CDE4"/>
<path d="M396.284 197.671H379.25V216.821H396.284V197.671Z" fill="#D6CDE4"/>
<path d="M341.867 241.29H324.833V260.44H341.867V241.29Z" fill="#D6CDE4"/>
<path d="M369.313 241.29H352.278V260.44H369.313V241.29Z" fill="#D6CDE4"/>
<path d="M396.758 241.29H379.723V260.44H396.758V241.29Z" fill="#D6CDE4"/>
<path d="M342.341 284.909H325.306V304.059H342.341V284.909Z" fill="#D6CDE4"/>
<path d="M369.786 284.909H352.751V304.059H369.786V284.909Z" fill="#D6CDE4"/>
<path d="M397.231 284.909H380.196V304.059H397.231V284.909Z" fill="#D6CDE4"/>
<path d="M342.341 284.909H325.306V304.059H342.341V284.909Z" fill="#D6CDE4"/>
<path d="M369.786 284.909H352.751V304.059H369.786V284.909Z" fill="#D6CDE4"/>
<path d="M397.231 284.909H380.196V304.059H397.231V284.909Z" fill="#D6CDE4"/>
<path d="M158.461 272.386C171.428 272.386 181.94 260.57 181.94 245.993C181.94 231.416 171.428 219.6 158.461 219.6C145.495 219.6 134.983 231.416 134.983 245.993C134.983 260.57 145.495 272.386 158.461 272.386Z" fill="white"/>
<path d="M158.526 245.993H158.59L159.752 320.822H157.301L158.526 245.993Z" fill="white"/>
<path d="M162.801 286.753L162.26 285.598L158.379 287.895L158.92 289.05L162.801 286.753Z" fill="white"/>
<path d="M227.487 247.167C247.205 247.167 263.19 229.198 263.19 207.031C263.19 184.865 247.205 166.896 227.487 166.896C207.769 166.896 191.784 184.865 191.784 207.031C191.784 229.198 207.769 247.167 227.487 247.167Z" fill="white"/>
<path d="M227.585 207.031H227.683L229.448 320.823H225.722L227.585 207.031Z" fill="white"/>
<path d="M234.086 269.013L233.263 267.257L227.362 270.75L228.184 272.506L234.086 269.013Z" fill="white"/>
<path d="M153.848 168.707L159.88 163.284C155.194 162.703 153.269 165.575 152.481 167.849C148.821 166.14 144.836 168.38 144.836 168.38L156.903 173.305C156.294 171.477 155.235 169.882 153.848 168.707Z" fill="white"/>
<path d="M217.4 124.515L223.431 119.093C218.746 118.511 216.821 121.384 216.033 123.658C212.372 121.949 208.387 124.188 208.387 124.188L220.455 129.113C219.846 127.285 218.786 125.69 217.4 124.515Z" fill="white"/>
<path d="M193.159 166.497L199.19 161.074C194.504 160.493 192.579 163.365 191.791 165.639C188.131 163.931 184.146 166.17 184.146 166.17L196.214 171.095C195.605 169.267 194.545 167.672 193.159 166.497Z" fill="white"/>
<path d="M455.155 299.763H103.983V332.169H455.155V299.763Z" fill="#D6CDE4"/>
<path d="M51.5324 384.12C51.5324 384.12 -19.5022 347.359 5.45218 321.867C30.4066 296.374 51.5324 384.12 51.5324 384.12Z" fill="#D6CDE4"/>
<path d="M50.2959 392.697C50.2959 392.697 17.6458 272.1 65.7243 277.867C113.803 283.635 50.2959 392.697 50.2959 392.697Z" fill="#D6CDE4"/>
<path d="M26.4905 382.002L27.8609 402.175L27.8826 402.524C27.8813 405.674 28.0229 408.822 28.3068 411.956C30.1666 432.533 38.1604 441.911 47.5028 441.911C56.8452 441.911 64.491 432.533 66.3508 411.956C66.6347 408.822 66.7763 405.674 66.775 402.524L66.7859 402.243L66.7913 402.175L68.1671 382.002H26.4905Z" fill="#D6CDE4"/>
<path d="M66.7912 402.175L66.7858 402.242L66.7749 402.523C66.7762 405.674 66.6347 408.822 66.3508 411.956H28.3068C28.0229 408.822 27.8813 405.674 27.8826 402.523L27.8608 402.175H66.7912Z" fill="white"/>
<path d="M526.815 384.12C526.815 384.12 455.78 347.359 480.734 321.867C505.689 296.374 526.815 384.12 526.815 384.12Z" fill="#D6CDE4"/>
<path d="M525.578 392.697C525.578 392.697 492.928 272.1 541.007 277.867C589.085 283.635 525.578 392.697 525.578 392.697Z" fill="#D6CDE4"/>
<path d="M501.772 382.002L503.143 402.175L503.165 402.524C503.163 405.674 503.305 408.822 503.589 411.956C505.449 432.533 513.442 441.911 522.785 441.911C532.127 441.911 539.773 432.533 541.633 411.956C541.917 408.822 542.058 405.674 542.057 402.524L542.068 402.243L542.073 402.175L543.449 382.002H501.772Z" fill="#D6CDE4"/>
<path d="M542.073 402.175L542.068 402.242L542.057 402.523C542.058 405.674 541.917 408.822 541.633 411.956H503.589C503.305 408.822 503.164 405.674 503.165 402.523L503.143 402.175H542.073Z" fill="white"/>
<path d="M432.499 457.151L427.842 457.766C424.163 460.26 419.845 461.198 415.064 461.007C414.396 460.985 413.745 460.766 413.176 460.374C412.607 459.982 412.138 459.429 411.817 458.771C411.539 458.193 411.383 457.551 411.361 456.895C411.34 456.238 411.453 455.585 411.693 454.986C411.933 454.387 412.292 453.858 412.744 453.44C413.195 453.023 413.726 452.728 414.295 452.579L417.834 451.653L426.372 442.265L431.524 431.784L439.006 432.749L440.564 446.061C440.762 448.725 440.031 451.37 438.526 453.439C437.021 455.509 434.86 456.84 432.499 457.151Z" fill="url(#paint0_linear_45_726)"/>
<path d="M359.966 450.416L355.402 451.623C352 454.572 347.805 456.057 343.035 456.48C342.37 456.543 341.701 456.41 341.096 456.093C340.49 455.776 339.969 455.287 339.584 454.674C339.249 454.136 339.028 453.518 338.94 452.868C338.853 452.219 338.899 451.555 339.077 450.929C339.254 450.303 339.558 449.732 339.964 449.26C340.37 448.787 340.867 448.426 341.418 448.205L344.839 446.832L352.371 436.411L356.426 425.339H363.958L366.855 438.365C367.321 440.986 366.863 443.708 365.578 445.956C364.293 448.205 362.281 449.804 359.966 450.416Z" fill="url(#paint1_linear_45_726)"/>
<path d="M356.224 426.075L364.742 427.548L378.173 351.319L401.431 306.759L429.604 436.387L440.086 438.596C438.911 365.598 444.648 273.697 431.569 262.568L374.569 269.934L349.673 345.058L356.224 426.075Z" fill="#2F2E41"/>
<path d="M397.5 149.145C408.355 149.145 417.155 139.253 417.155 127.05C417.155 114.847 408.355 104.954 397.5 104.954C386.645 104.954 377.845 114.847 377.845 127.05C377.845 139.253 386.645 149.145 397.5 149.145Z" fill="url(#paint2_linear_45_726)"/>
<path d="M425.017 160.929L401.431 165.348L395.535 141.779L412.569 135.888L425.017 160.929Z" fill="url(#paint3_linear_45_726)"/>
<path d="M434.845 265.514L371.948 272.143C376.991 252.433 381.61 232.792 377.845 213.222C373.063 195.75 377.678 185.36 390.293 177.132L398.81 155.773L421.741 152.827C427.814 163.803 430.298 176.813 428.767 189.624C425.499 217.481 426.382 243.331 434.845 265.514Z" fill="url(#paint4_linear_45_726)"/>
<path d="M397.058 100.954C390.498 102.639 383.032 105.026 382.613 107.244C375.865 109.156 370.772 113.735 369.732 120.715C369.645 121.318 369.677 121.936 369.825 122.523C369.974 123.111 370.235 123.656 370.591 124.118C370.946 124.58 371.388 124.949 371.884 125.199C372.38 125.448 372.919 125.573 373.463 125.563C377.132 125.51 382.641 125.115 386.279 123.407C396.846 131.061 398.62 150.969 394.005 164.52L401.267 163.771L408.78 139.047L410.699 162.799L427.271 160.336L425.136 130.048C424.48 122.909 422.319 116.049 418.832 110.038C418.47 109.434 418.074 108.857 417.646 108.31C415.125 105.108 411.88 102.734 408.255 101.439C404.63 100.143 400.76 99.9758 397.058 100.954Z" fill="#2F2E41"/>
<path d="M355.436 464.748C355.4 465.109 355.432 465.473 355.53 465.819C355.627 466.165 355.788 466.484 356.002 466.755C356.216 467.027 356.478 467.245 356.772 467.395C357.065 467.546 357.384 467.626 357.706 467.629L365.077 467.715C365.474 467.684 365.845 467.484 366.117 467.157C366.388 466.83 366.539 466.399 366.539 465.952C366.539 465.599 366.445 465.254 366.269 464.961C366.093 464.669 365.843 464.443 365.551 464.312L363.377 463.334L360.214 458.356H357.684C356.442 460.219 355.666 462.421 355.437 464.734L355.436 464.748Z" fill="url(#paint5_linear_45_726)"/>
<path d="M337.794 464.748C337.83 465.109 337.798 465.473 337.701 465.819C337.603 466.165 337.442 466.484 337.228 466.755C337.014 467.027 336.752 467.245 336.458 467.395C336.165 467.546 335.847 467.626 335.524 467.629L328.154 467.715C327.757 467.684 327.385 467.484 327.113 467.157C326.842 466.83 326.691 466.399 326.691 465.952C326.691 465.599 326.785 465.254 326.961 464.961C327.138 464.669 327.388 464.443 327.679 464.312L329.854 463.334L333.016 458.356H335.546C336.789 460.219 337.564 462.421 337.793 464.734L337.794 464.748Z" fill="url(#paint6_linear_45_726)"/>
<path d="M332.384 458.356H336.179L349.461 393.651L356.419 459.067H360.846L366.855 374.809L336.179 374.453L332.384 458.356Z" fill="#3F3D56"/>
<path d="M315.306 339.613H320.366V326.103L321.517 323.515C321.748 322.995 321.867 322.422 321.863 321.841C321.86 321.261 321.734 320.689 321.497 320.173C321.26 319.658 320.917 319.212 320.498 318.873C320.078 318.534 319.594 318.312 319.083 318.224C318.616 318.143 318.139 318.176 317.684 318.322C317.23 318.468 316.809 318.723 316.45 319.069C316.091 319.415 315.803 319.844 315.606 320.327C315.408 320.81 315.306 321.335 315.306 321.866V339.613Z" fill="url(#paint7_linear_45_726)"/>
<path d="M345.35 306.193C351.813 306.193 357.052 300.304 357.052 293.039C357.052 285.774 351.813 279.885 345.35 279.885C338.888 279.885 333.649 285.774 333.649 293.039C333.649 300.304 338.888 306.193 345.35 306.193Z" fill="url(#paint8_linear_45_726)"/>
<path d="M340.606 315.437H352.624V299.794H340.606V315.437Z" fill="url(#paint9_linear_45_726)"/>
<path d="M334.914 376.587C345.551 383.966 356.797 383.245 368.437 377.298L365.906 311.171L352.624 310.46L338.709 312.593L331.751 318.992L334.914 376.587Z" fill="url(#paint10_linear_45_726)"/>
<path d="M322.264 353.122L336.179 341.034L331.751 318.992L323.529 336.057L320.999 333.213L313.408 339.612L322.264 353.122Z" fill="url(#paint11_linear_45_726)"/>
<path d="M384.032 312.306L379.606 315.064L373.78 303.248L371.657 301.611C371.231 301.283 370.88 300.846 370.633 300.336C370.386 299.826 370.249 299.258 370.234 298.678C370.219 298.097 370.327 297.521 370.547 296.996C370.768 296.471 371.096 296.012 371.505 295.657C371.878 295.332 372.31 295.101 372.771 294.981C373.231 294.861 373.71 294.854 374.173 294.961C374.636 295.069 375.072 295.287 375.453 295.602C375.834 295.916 376.15 296.32 376.379 296.785L378.206 300.49L384.032 312.306Z" fill="url(#paint12_linear_45_726)"/>
<path d="M359.265 332.147L376.059 322.125L384.882 316.86L386.147 308.327L380.454 301.928L373.497 306.905L374.129 312.593L365.907 311.171L359.265 332.147Z" fill="url(#paint13_linear_45_726)"/>
<path d="M347.88 303.705C355.565 303.705 361.795 296.701 361.795 288.062C361.795 279.423 355.565 272.419 347.88 272.419C340.195 272.419 333.965 279.423 333.965 288.062C333.965 296.701 340.195 303.705 347.88 303.705Z" fill="#2F2E41"/>
<path d="M355.47 277.397C358.963 277.397 361.795 274.213 361.795 270.286C361.795 266.359 358.963 263.176 355.47 263.176C351.977 263.176 349.145 266.359 349.145 270.286C349.145 274.213 351.977 277.397 355.47 277.397Z" fill="#2F2E41"/>
<path d="M355.164 276.23C356.417 276.966 357.855 277.208 359.245 276.917C360.636 276.627 361.9 275.82 362.835 274.627C363.77 273.434 364.322 271.923 364.403 270.335C364.484 268.748 364.089 267.176 363.281 265.87C364.013 266.489 364.616 267.278 365.049 268.184C365.482 269.091 365.735 270.092 365.791 271.119C365.846 272.146 365.703 273.174 365.37 274.132C365.037 275.091 364.523 275.957 363.864 276.67C363.204 277.383 362.415 277.927 361.55 278.264C360.685 278.6 359.766 278.722 358.855 278.62C357.945 278.518 357.064 278.195 356.276 277.674C355.487 277.152 354.808 276.444 354.287 275.599C354.563 275.836 354.856 276.047 355.164 276.23Z" fill="#2F2E41"/>
<path d="M394.224 287.611L394.659 304.71C394.719 307.067 393.982 309.362 392.597 311.132C391.212 312.903 389.281 314.018 387.194 314.253C385.857 314.403 384.508 314.186 383.263 313.62C382.017 313.054 380.912 312.157 380.043 311.005C379.175 309.853 378.568 308.481 378.275 307.007C377.982 305.533 378.012 304.001 378.363 302.543L381.776 288.347L391.604 227.953L390.948 192.6L411.914 191.863L407.983 231.635L394.224 287.611Z" fill="url(#paint14_linear_45_726)"/>
<path d="M413.224 195.546C405.628 192.293 397.234 192.293 389.638 195.546L390.948 166.085C390.948 162.96 392.053 159.962 394.019 157.752C395.985 155.542 398.651 154.301 401.431 154.301C404.211 154.301 406.878 155.542 408.843 157.752C410.809 159.962 411.914 162.96 411.914 166.085L413.224 195.546Z" fill="url(#paint15_linear_45_726)"/>
</g>
<defs>
<linearGradient id="paint0_linear_45_726" x1="425.977" y1="431.784" x2="425.977" y2="461.031" gradientUnits="userSpaceOnUse">
<stop stop-color="#FFB8B8"/>
<stop offset="1" stop-color="#B07779"/>
</linearGradient>
<linearGradient id="paint1_linear_45_726" x1="352.965" y1="425.339" x2="352.965" y2="456.495" gradientUnits="userSpaceOnUse">
<stop stop-color="#FFB8B8"/>
<stop offset="1" stop-color="#B07779"/>
</linearGradient>
<linearGradient id="paint2_linear_45_726" x1="397.5" y1="104.954" x2="397.5" y2="149.145" gradientUnits="userSpaceOnUse">
<stop stop-color="#FFB8B8"/>
<stop offset="1" stop-color="#B07779"/>
</linearGradient>
<linearGradient id="paint3_linear_45_726" x1="410.276" y1="135.888" x2="410.276" y2="165.348" gradientUnits="userSpaceOnUse">
<stop stop-color="#FFB8B8"/>
<stop offset="1" stop-color="#B07779"/>
</linearGradient>
<linearGradient id="paint4_linear_45_726" x1="403.397" y1="152.827" x2="403.397" y2="272.143" gradientUnits="userSpaceOnUse">
<stop stop-color="#775BB4"/>
<stop offset="1" stop-color="#34274E"/>
</linearGradient>
<linearGradient id="paint5_linear_45_726" x1="360.98" y1="458.356" x2="360.98" y2="467.715" gradientUnits="userSpaceOnUse">
<stop stop-color="#FFB8B8"/>
<stop offset="1" stop-color="#B07779"/>
</linearGradient>
<linearGradient id="paint6_linear_45_726" x1="332.25" y1="458.356" x2="332.25" y2="467.715" gradientUnits="userSpaceOnUse">
<stop stop-color="#FFB8B8"/>
<stop offset="1" stop-color="#B07779"/>
</linearGradient>
<linearGradient id="paint7_linear_45_726" x1="318.585" y1="318.181" x2="318.585" y2="339.613" gradientUnits="userSpaceOnUse">
<stop stop-color="#FFB8B8"/>
<stop offset="1" stop-color="#B07779"/>
</linearGradient>
<linearGradient id="paint8_linear_45_726" x1="345.35" y1="279.885" x2="345.35" y2="306.193" gradientUnits="userSpaceOnUse">
<stop stop-color="#FFB8B8"/>
<stop offset="1" stop-color="#B07779"/>
</linearGradient>
<linearGradient id="paint9_linear_45_726" x1="346.615" y1="315.437" x2="346.615" y2="299.794" gradientUnits="userSpaceOnUse">
<stop stop-color="#FFB8B8"/>
<stop offset="1" stop-color="#B07779"/>
</linearGradient>
<linearGradient id="paint10_linear_45_726" x1="350.094" y1="310.46" x2="350.094" y2="381.94" gradientUnits="userSpaceOnUse">
<stop stop-color="#775BB4"/>
<stop offset="1" stop-color="#34274E"/>
</linearGradient>
<linearGradient id="paint11_linear_45_726" x1="324.794" y1="318.992" x2="324.794" y2="353.122" gradientUnits="userSpaceOnUse">
<stop stop-color="#775BB4"/>
<stop offset="1" stop-color="#34274E"/>
</linearGradient>
<linearGradient id="paint12_linear_45_726" x1="377.132" y1="294.886" x2="377.132" y2="315.064" gradientUnits="userSpaceOnUse">
<stop stop-color="#FFB8B8"/>
<stop offset="1" stop-color="#B07779"/>
</linearGradient>
<linearGradient id="paint13_linear_45_726" x1="372.706" y1="301.928" x2="372.706" y2="332.147" gradientUnits="userSpaceOnUse">
<stop stop-color="#775BB4"/>
<stop offset="1" stop-color="#34274E"/>
</linearGradient>
<linearGradient id="paint14_linear_45_726" x1="394.995" y1="191.863" x2="394.995" y2="314.299" gradientUnits="userSpaceOnUse">
<stop stop-color="#FFB8B8"/>
<stop offset="1" stop-color="#B07779"/>
</linearGradient>
<linearGradient id="paint15_linear_45_726" x1="401.431" y1="154.301" x2="401.431" y2="195.546" gradientUnits="userSpaceOnUse">
<stop stop-color="#775BB4"/>
<stop offset="1" stop-color="#34274E"/>
</linearGradient>
<clipPath id="clip0_45_726">
<rect width="559" height="478" rx="10" fill="white"/>
</clipPath>
</defs>
</svg>
