<svg width="14" height="14" viewBox="0 0 14 14" fill="none" xmlns="http://www.w3.org/2000/svg">
<g clip-path="url(#clip0_45_824)">
<path d="M13.4168 6.95573C13.4168 10.4995 10.544 13.3724 7.00016 13.3724C3.45634 13.3724 0.583496 10.4995 0.583496 6.95573C0.583496 3.4119 3.45634 0.539062 7.00016 0.539062C10.544 0.539062 13.4168 3.4119 13.4168 6.95573ZM1.75415 6.95573C1.75415 9.85303 4.10287 12.2018 7.00016 12.2018C9.89746 12.2018 12.2462 9.85303 12.2462 6.95573C12.2462 4.05843 9.89746 1.70971 7.00016 1.70971C4.10287 1.70971 1.75415 4.05843 1.75415 6.95573Z" fill="white"/>
<path d="M6.99959 2.91699C6.67742 2.91699 6.41626 3.17816 6.41626 3.50033V7.27257C6.41626 7.27257 6.41626 7.42464 6.49017 7.53903C6.53964 7.63604 6.61675 7.72033 6.71808 7.77884L9.41296 9.33477C9.69197 9.49582 10.0487 9.40022 10.2098 9.12121C10.3709 8.8422 10.2753 8.48543 9.99629 8.32437L7.58293 6.93102V3.50033C7.58293 3.17816 7.32177 2.91699 6.99959 2.91699Z" fill="white"/>
</g>
<defs>
<clipPath id="clip0_45_824">
<rect width="14" height="14" fill="white"/>
</clipPath>
</defs>
</svg>
