<svg width="72" height="30" viewBox="0 0 72 30" fill="none" xmlns="http://www.w3.org/2000/svg">
<path d="M11.5416 5.21871C11.3531 4.01562 10.9476 3.10948 10.3244 2.50063C9.71584 1.89178 8.90447 1.58023 7.89003 1.56562C7.13642 1.56562 6.47723 1.73958 5.9121 2.08749C5.34697 2.43541 4.87592 2.89951 4.49928 3.47914C4.13691 4.05911 3.86181 4.71859 3.67333 5.45791C3.49944 6.19723 3.4125 6.95829 3.4125 7.7411C3.4125 8.98802 3.58638 10.097 3.93415 11.068C4.29653 12.0248 4.81818 12.7787 5.49912 13.3295C6.18006 13.8806 7.00601 14.1558 7.97698 14.1558C8.88988 14.1558 9.79564 13.9241 10.6939 13.4599C11.5922 12.9816 12.3458 12.3221 12.9544 11.4812L13.9977 12.4379C13.2876 13.4093 12.5415 14.1486 11.759 14.6559C10.9765 15.1489 10.2086 15.4822 9.455 15.6562C8.71599 15.8301 8.04931 15.9171 7.45532 15.9171C6.33967 15.9171 5.32523 15.7214 4.41233 15.33C3.49944 14.9243 2.70983 14.3732 2.04316 13.6774C1.39109 12.9673 0.884033 12.1481 0.521659 11.2202C0.173889 10.2781 0 9.26323 0 8.17599C0 7.19035 0.159288 6.21184 0.478191 5.24047C0.797093 4.26943 1.26781 3.39217 1.89101 2.60936C2.52847 1.81228 3.32555 1.18169 4.28192 0.717574C5.23829 0.239191 6.34681 0 7.60748 0C8.17261 0 8.78833 0.0944536 9.455 0.282681C10.1359 0.456638 10.7737 0.717569 11.3677 1.06548L11.2808 0.152212H12.9544V5.21871H11.5416ZM21.1376 15.5692C21.1084 15.3663 21.0866 15.1995 21.0724 15.069C21.0724 14.9243 21.0649 14.7575 21.0506 14.5689C20.5578 15.0619 20.0362 15.4098 19.4857 15.6127C18.9348 15.8158 18.3771 15.9171 17.812 15.9171C16.8845 15.9171 16.1601 15.6419 15.6381 15.0908C15.1168 14.54 14.856 13.8514 14.856 13.0251C14.856 12.3292 15.0299 11.735 15.3776 11.242C15.7397 10.7493 16.2107 10.3505 16.7904 10.046C17.3844 9.72734 18.0365 9.48815 18.7466 9.32846C19.4711 9.1545 20.1955 9.05325 20.9202 9.02404V7.89331C20.9202 7.51652 20.8693 7.17574 20.7681 6.87131C20.6811 6.56689 20.5215 6.3277 20.2899 6.15374C20.0725 5.97978 19.7607 5.90028 19.3552 5.91455C19.0798 5.92916 18.8119 5.98726 18.551 6.08851C18.2902 6.1901 18.0654 6.33518 17.8772 6.5234C17.993 6.65387 18.0654 6.79895 18.0946 6.9583C18.1235 7.10337 18.1381 7.23383 18.1381 7.34969C18.1381 7.63985 18.0219 7.94428 17.7903 8.26298C17.5583 8.5674 17.1888 8.71248 16.6818 8.69787C16.2471 8.6836 15.9135 8.53139 15.6819 8.24123C15.45 7.95142 15.3341 7.61063 15.3341 7.21922C15.3341 6.63959 15.5369 6.13947 15.9428 5.71885C16.3629 5.28395 16.9209 4.95065 17.6164 4.71859C18.3119 4.47227 19.0798 4.34893 19.9204 4.34893C21.1953 4.34893 22.1809 4.68257 22.8764 5.34918C23.5862 6.00152 23.9415 7.05274 23.9415 8.50216C23.9415 8.99515 23.9415 9.41544 23.9415 9.76335C23.9415 10.1113 23.934 10.4592 23.9197 10.8071C23.9197 11.155 23.9197 11.5756 23.9197 12.0683C23.9197 12.2715 23.9123 12.5613 23.898 12.9381C23.8834 13.3006 23.8617 13.6485 23.8328 13.9818C24.079 13.9529 24.3398 13.9383 24.6153 13.9383C24.8904 13.9241 25.1006 13.9166 25.2456 13.9166V15.5692H21.1376ZM20.8985 10.5679C20.4926 10.6114 20.1085 10.6841 19.7465 10.7853C19.3841 10.8869 19.0652 11.0245 18.7901 11.1985C18.5293 11.3725 18.3191 11.5828 18.1598 11.8291C18.0148 12.0758 17.9424 12.351 17.9424 12.6554C17.9567 13.0614 18.0871 13.3512 18.3337 13.5252C18.5799 13.6991 18.8625 13.7861 19.1814 13.7861C19.5145 13.7861 19.826 13.7138 20.116 13.5687C20.4057 13.4239 20.6665 13.2354 20.8985 13.0033C20.8985 12.8586 20.8985 12.7206 20.8985 12.5902C20.8985 12.4454 20.8985 12.3003 20.8985 12.1553C20.8985 11.8943 20.8985 11.6334 20.8985 11.3725C20.8985 11.0972 20.8985 10.8288 20.8985 10.5679ZM26.4934 15.5692V14.1558C26.8992 14.1558 27.1889 14.0763 27.3628 13.9166C27.5367 13.7572 27.6454 13.5327 27.6888 13.2425C27.7469 12.9381 27.7758 12.5976 27.7758 12.2205V8.5674C27.7758 8.30646 27.7829 8.01665 27.7975 7.69761C27.8121 7.36431 27.8338 7.03814 27.8627 6.7191C27.6307 6.73371 27.3557 6.74832 27.0368 6.76259C26.7325 6.76259 26.5005 6.77006 26.3412 6.78433V5.13174C27.0079 5.13174 27.573 5.09573 28.0366 5.02302C28.5002 4.95065 28.8625 4.86367 29.1234 4.76208C29.3988 4.66083 29.587 4.56638 29.6885 4.4794H30.7535C30.7824 4.66796 30.797 4.80557 30.797 4.89255C30.797 4.97953 30.797 5.06651 30.797 5.15349C30.8116 5.22619 30.8405 5.3638 30.884 5.56664C31.1737 5.33492 31.5071 5.13174 31.8838 4.95779C32.2604 4.76956 32.6374 4.62448 33.014 4.52289C33.3907 4.40704 33.7242 4.34893 34.0139 4.34893C35.3469 4.34893 36.289 4.7332 36.8395 5.5014C37.4047 6.25532 37.6872 7.47303 37.6872 9.1545V12.0683C37.6872 12.2715 37.6801 12.5613 37.6655 12.9381C37.6509 13.3006 37.6291 13.6485 37.6003 13.9818C37.8465 13.9529 38.1073 13.9383 38.3828 13.9383C38.6582 13.9241 38.8681 13.9166 39.0131 13.9166V15.5692H33.3183V14.1558C33.7242 14.1558 34.0139 14.0763 34.1878 13.9166C34.3763 13.7572 34.4921 13.5327 34.5356 13.2425C34.5936 12.9381 34.6225 12.5976 34.6225 12.2205L34.6007 9.13276C34.6007 8.19061 34.4632 7.49477 34.1878 7.04527C33.927 6.5815 33.4776 6.34944 32.8402 6.34944C32.4778 6.34944 32.1158 6.42929 31.7534 6.58863C31.4056 6.74832 31.1084 6.93655 30.8622 7.15399C30.8622 7.35717 30.8622 7.56714 30.8622 7.78459C30.8622 7.98776 30.8622 8.19061 30.8622 8.39344V12.0683C30.8622 12.2715 30.8551 12.5613 30.8405 12.9381C30.8259 13.3006 30.8041 13.6485 30.7753 13.9818C31.0072 13.9529 31.2606 13.9383 31.536 13.9383C31.8257 13.9241 32.0431 13.9166 32.1881 13.9166V15.5692H26.4934ZM44.0785 15.6344L40.6443 8.08902C40.485 7.72684 40.3689 7.45129 40.2965 7.26272C40.2384 7.07449 40.195 6.9148 40.1661 6.78433C40.1515 6.63959 40.1226 6.47991 40.0792 6.30595L39.2749 6.34944V4.69685H44.3611V6.08851C44.0568 6.10312 43.854 6.19009 43.7525 6.34944C43.6509 6.50913 43.6149 6.7191 43.6438 6.98004C43.6727 7.22671 43.7379 7.49477 43.8394 7.78459L44.9697 10.5679C45.0855 10.8435 45.2016 11.1261 45.3174 11.416C45.4333 11.7061 45.5494 11.9959 45.6652 12.2857H45.6869C45.8027 11.9813 45.9114 11.6769 46.013 11.3725C46.1288 11.068 46.2375 10.7636 46.339 10.4592L47.2736 7.80634C47.404 7.44415 47.5199 7.15399 47.6214 6.93654C47.7372 6.7191 47.8605 6.49452 47.9909 6.26247L46.6433 6.34944V4.69685H50.7731V6.08851C50.4399 6.14661 50.1428 6.33517 49.8819 6.65386C49.6211 6.95829 49.3966 7.30621 49.2081 7.69761C49.0196 8.07475 48.8675 8.40805 48.7517 8.69787L45.9695 15.6344H44.0785ZM57.6891 15.5692C57.6599 15.3663 57.6381 15.1995 57.6239 15.069C57.6239 14.9243 57.6164 14.7575 57.6022 14.5689C57.1094 15.0619 56.5877 15.4098 56.0372 15.6127C55.4863 15.8158 54.9287 15.9171 54.3635 15.9171C53.436 15.9171 52.7116 15.6419 52.1896 15.0908C51.6683 14.54 51.4075 13.8514 51.4075 13.0251C51.4075 12.3292 51.5814 11.735 51.9291 11.242C52.2912 10.7493 52.7622 10.3505 53.342 10.046C53.936 9.72734 54.588 9.48815 55.2982 9.32846C56.0226 9.1545 56.747 9.05325 57.4717 9.02404V7.89331C57.4717 7.51652 57.4208 7.17574 57.3196 6.87131C57.2326 6.56689 57.073 6.3277 56.8414 6.15374C56.624 5.97978 56.3123 5.90028 55.9068 5.91455C55.6313 5.92916 55.3634 5.98726 55.1025 6.08851C54.8417 6.1901 54.6169 6.33518 54.4288 6.5234C54.5446 6.65387 54.6169 6.79895 54.6461 6.9583C54.675 7.10337 54.6896 7.23383 54.6896 7.34969C54.6896 7.63985 54.5734 7.94428 54.3418 8.26298C54.1098 8.5674 53.7403 8.71248 53.2333 8.69787C52.7986 8.6836 52.4651 8.53139 52.2334 8.24123C52.0015 7.95142 51.8857 7.61063 51.8857 7.21922C51.8857 6.63959 52.0884 6.13947 52.4943 5.71885C52.9144 5.28395 53.4724 4.95065 54.1679 4.71859C54.8635 4.47227 55.6313 4.34893 56.4719 4.34893C57.7468 4.34893 58.7324 4.68257 59.4279 5.34918C60.1377 6.00152 60.493 7.05274 60.493 8.50216C60.493 8.99515 60.493 9.41544 60.493 9.76335C60.493 10.1113 60.4855 10.4592 60.4713 10.8071C60.4713 11.155 60.4713 11.5756 60.4713 12.0683C60.4713 12.2715 60.4638 12.5613 60.4495 12.9381C60.4349 13.3006 60.4132 13.6485 60.3843 13.9818C60.6305 13.9529 60.8914 13.9383 61.1668 13.9383C61.4419 13.9241 61.6521 13.9166 61.7971 13.9166V15.5692H57.6891ZM57.45 10.5679C57.0442 10.6114 56.66 10.6841 56.298 10.7853C55.9356 10.8869 55.6167 11.0245 55.3416 11.1985C55.0808 11.3725 54.8706 11.5828 54.7113 11.8291C54.5663 12.0758 54.4939 12.351 54.4939 12.6554C54.5082 13.0614 54.6386 13.3512 54.8852 13.5252C55.1314 13.6991 55.414 13.7861 55.7329 13.7861C56.066 13.7861 56.3775 13.7138 56.6675 13.5687C56.9572 13.4239 57.218 13.2354 57.45 13.0033C57.45 12.8586 57.45 12.7206 57.45 12.5902C57.45 12.4454 57.45 12.3003 57.45 12.1553C57.45 11.8943 57.45 11.6334 57.45 11.3725C57.45 11.0972 57.45 10.8288 57.45 10.5679ZM68.0441 15.9171C67.4209 15.9171 66.8123 15.8376 66.2183 15.6779C65.6243 15.5186 65.1604 15.3157 64.8272 15.069L64.8707 15.7214H63.2188L63.1318 11.9813H64.5446C64.5881 12.4162 64.762 12.8151 65.0663 13.1773C65.3706 13.5398 65.769 13.8296 66.2618 14.0471C66.7545 14.2502 67.3051 14.3515 67.9137 14.3515C68.1599 14.3515 68.3918 14.3155 68.6092 14.2428C68.8412 14.1704 69.0293 14.0545 69.1743 13.8948C69.3336 13.7209 69.4134 13.5109 69.4134 13.2642C69.4134 12.989 69.3119 12.7641 69.1091 12.5902C68.9206 12.4162 68.6381 12.2497 68.2614 12.09C67.8991 11.9307 67.4426 11.7496 66.8921 11.5464C66.4428 11.3725 65.9863 11.1914 65.5227 11.0028C65.0734 10.8146 64.6533 10.5897 64.2621 10.3287C63.8854 10.0535 63.5811 9.71986 63.3492 9.32846C63.1172 8.92279 63.0014 8.4298 63.0014 7.84983C63.0014 7.42954 63.0812 7.01639 63.2405 6.61038C63.3998 6.19009 63.6463 5.8133 63.9795 5.47965C64.3127 5.13174 64.7331 4.85654 65.2402 4.65336C65.7618 4.45053 66.3776 4.34893 67.0877 4.34893C67.479 4.34893 67.9208 4.41417 68.4136 4.54464C68.9206 4.66084 69.3482 4.84193 69.696 5.08826V4.45765H71.3479V8.30646H69.9351C69.8481 7.7992 69.6671 7.36431 69.3917 7.00178C69.1309 6.6396 68.7902 6.36405 68.3701 6.17548C67.95 5.97265 67.4789 5.87106 66.9573 5.87106C66.5949 5.87106 66.2618 5.95804 65.9575 6.132C65.6678 6.30595 65.5227 6.60324 65.5227 7.02353C65.5227 7.35717 65.6385 7.62525 65.8705 7.82808C66.1025 8.01665 66.421 8.17599 66.8269 8.30646C67.2327 8.43693 67.6817 8.58914 68.1745 8.7631C68.9135 9.00976 69.5656 9.29958 70.1307 9.63288C70.7104 9.96653 71.1669 10.3722 71.5001 10.8506C71.8332 11.3147 72 11.8872 72 12.5684C72 13.3223 71.8115 13.9458 71.4348 14.4385C71.0582 14.9315 70.5654 15.3011 69.9568 15.5474C69.3628 15.7941 68.725 15.9171 68.0441 15.9171Z" fill="#252626"/>
<path d="M0 29.4881V29.0811C0.31245 29.0645 0.52607 28.9945 0.641201 28.8711C0.756332 28.7397 0.817797 28.563 0.826288 28.3408C0.84259 28.1104 0.850748 27.8515 0.850748 27.5637V22.2346C0.850748 22.0701 0.854817 21.9139 0.862967 21.7657C0.871458 21.6094 0.879608 21.4698 0.887759 21.3465C0.739685 21.3546 0.591948 21.3628 0.443874 21.3709C0.2958 21.3791 0.148074 21.3876 0 21.3957V20.8528H2.77434V21.2602C2.47038 21.2683 2.25643 21.338 2.13315 21.4698C2.01802 21.6013 1.95246 21.778 1.93582 22.0002C1.92767 22.2224 1.9236 22.4813 1.9236 22.7772V24.8249H6.33797V22.2346C6.33797 22.0701 6.34205 21.9139 6.3502 21.7657C6.35869 21.6094 6.36684 21.4698 6.37499 21.3465C6.22692 21.3546 6.07918 21.3628 5.93111 21.3709C5.78303 21.3791 5.6353 21.3876 5.48722 21.3957V20.8528H8.26157V21.2602C7.95727 21.2683 7.74365 21.338 7.62037 21.4698C7.50524 21.6013 7.4397 21.778 7.42306 22.0002C7.4149 22.2224 7.41083 22.4813 7.41083 22.7772V28.02C7.41083 28.2422 7.40676 28.4352 7.39861 28.6C7.39861 28.756 7.39012 28.8878 7.37381 28.9945C7.52189 28.9863 7.66961 28.9782 7.81769 28.97C7.96576 28.9618 8.1135 28.9534 8.26157 28.9452V29.4881H5.48722V29.0811C5.79967 29.0645 6.01329 28.9945 6.12842 28.8711C6.24355 28.7397 6.30503 28.563 6.31318 28.3408C6.32982 28.1104 6.33797 27.8515 6.33797 27.5637V25.3186L1.9236 25.3679V28.02C1.9236 28.2422 1.91952 28.4352 1.91137 28.6C1.91137 28.756 1.90288 28.8878 1.88658 28.9945C2.03466 28.9863 2.18239 28.9782 2.33047 28.97C2.47854 28.9618 2.62627 28.9534 2.77434 28.9452V29.4881H0ZM12.2667 29.6855C11.6914 29.6855 11.1694 29.5537 10.7007 29.2907C10.2324 29.0193 9.85812 28.6493 9.57861 28.1804C9.30726 27.7034 9.17175 27.1608 9.17175 26.5523C9.17175 25.9023 9.30726 25.3186 9.57861 24.8005C9.84997 24.2823 10.2198 23.8753 10.6885 23.579C11.1572 23.2749 11.6832 23.1227 12.2667 23.1227C12.8424 23.1227 13.3643 23.2624 13.8327 23.542C14.3014 23.8135 14.6753 24.1835 14.9548 24.6523C15.2343 25.1212 15.3742 25.6556 15.3742 26.256C15.3742 26.8893 15.2343 27.4689 14.9548 27.9956C14.6838 28.5134 14.3136 28.9248 13.8453 29.2289C13.3766 29.5333 12.8505 29.6855 12.2667 29.6855ZM12.3655 29.1919C12.8013 29.1919 13.1463 29.0685 13.4014 28.8219C13.6561 28.5752 13.8368 28.2545 13.9437 27.8597C14.0589 27.4649 14.1163 27.0497 14.1163 26.6138C14.1163 26.2438 14.0796 25.8819 14.0056 25.5282C13.9397 25.1664 13.8327 24.8416 13.685 24.5538C13.5369 24.2575 13.3436 24.0231 13.1052 23.8505C12.875 23.6779 12.5955 23.5916 12.2667 23.5916C11.8395 23.5916 11.49 23.7149 11.2186 23.9616C10.9473 24.2083 10.7459 24.529 10.6145 24.9238C10.4912 25.3186 10.4294 25.7419 10.4294 26.1945C10.4294 26.7041 10.4993 27.1893 10.6392 27.65C10.7788 28.1023 10.9925 28.4723 11.2805 28.7604C11.5681 29.0481 11.9298 29.1919 12.3655 29.1919ZM16.4219 29.4881V29.1181C16.6767 29.1181 16.8533 29.0563 16.9521 28.933C17.0506 28.8015 17.1083 28.6245 17.1246 28.4026C17.1409 28.1722 17.1494 27.9089 17.1494 27.613V24.8005C17.1494 24.669 17.1494 24.5372 17.1494 24.4057C17.1576 24.2742 17.1739 24.1383 17.1987 23.9986C17.0506 24.0068 16.9028 24.0149 16.7548 24.0231C16.6148 24.0316 16.4712 24.0397 16.3231 24.0479V23.5298C16.6848 23.5298 16.9562 23.5134 17.1368 23.4805C17.326 23.4475 17.4659 23.4064 17.5563 23.3572C17.6466 23.3079 17.7206 23.2542 17.778 23.1968H18.1357C18.1523 23.279 18.1604 23.3735 18.1604 23.4805C18.1686 23.5875 18.1768 23.7109 18.1853 23.8505C18.4318 23.6368 18.7154 23.4639 19.036 23.3324C19.3566 23.1927 19.6772 23.1227 19.9978 23.1227C20.4087 23.1227 20.7541 23.1968 21.0336 23.3449C21.3131 23.4927 21.5308 23.6942 21.6871 23.9494C21.9666 23.719 22.2872 23.5257 22.6489 23.3694C23.0187 23.2049 23.3804 23.1227 23.7339 23.1227C24.4492 23.1227 24.9753 23.3405 25.3122 23.7764C25.6494 24.2042 25.8097 24.9071 25.793 25.886L25.7808 28.1804C25.7808 28.3448 25.7768 28.493 25.7686 28.6245C25.7686 28.7478 25.756 28.8796 25.7316 29.0193C25.863 29.0111 25.9904 29.007 26.1137 29.007C26.2454 28.9989 26.3769 28.9904 26.5083 28.9822V29.4881H23.9927V29.1181C24.2478 29.1181 24.4244 29.0563 24.5232 28.933C24.6217 28.8015 24.6795 28.6245 24.6958 28.4026C24.7121 28.1722 24.7205 27.9089 24.7205 27.613V25.886C24.7205 25.1786 24.6054 24.6483 24.3751 24.2946C24.153 23.9409 23.7998 23.7683 23.3148 23.7764C23.0598 23.7764 22.8051 23.8342 22.55 23.9494C22.2953 24.0642 22.0735 24.2083 21.8844 24.3809C21.9255 24.5127 21.9544 24.6564 21.9707 24.8127C21.9954 24.9608 22.0077 25.1171 22.0077 25.2816C21.9995 25.7586 21.9954 26.2397 21.9954 26.7249C21.9954 27.21 21.9914 27.6952 21.9829 28.1804C21.9829 28.3448 21.9788 28.493 21.9707 28.6245C21.9707 28.7478 21.9584 28.8796 21.9336 29.0193C22.0651 29.0111 22.1928 29.007 22.316 29.007C22.4475 28.9989 22.5789 28.9904 22.7103 28.9822V29.4881H20.1951V29.1181C20.4498 29.1181 20.6224 29.0563 20.713 28.933C20.8115 28.8015 20.8693 28.6245 20.8856 28.4026C20.9104 28.1722 20.9226 27.9089 20.9226 27.613L20.9348 25.886C20.9429 25.1786 20.8404 24.6442 20.6264 24.2823C20.4128 23.9205 20.0633 23.7435 19.5784 23.752C19.3237 23.752 19.073 23.8094 18.8265 23.9246C18.5796 24.0316 18.37 24.1712 18.1975 24.3438C18.1975 24.4427 18.1975 24.5497 18.1975 24.6646C18.2056 24.7716 18.2097 24.8868 18.2097 25.0101V28.1804C18.2097 28.3448 18.2056 28.493 18.1975 28.6245C18.1975 28.7478 18.1852 28.8796 18.1604 29.0193C18.2919 29.0111 18.4192 29.007 18.5425 29.007C18.6743 28.9989 18.8057 28.9904 18.9372 28.9822V29.4881H16.4219ZM30.4241 29.6855C29.8569 29.6855 29.3431 29.5537 28.8826 29.2907C28.4305 29.0193 28.0729 28.6411 27.8101 28.1559C27.5469 27.6623 27.4154 27.0826 27.4154 26.4164C27.4154 25.8408 27.5428 25.3019 27.7975 24.8005C28.0607 24.2986 28.4265 23.8957 28.8951 23.5916C29.3635 23.279 29.9062 23.1227 30.5226 23.1227C30.868 23.1227 31.1886 23.1801 31.4844 23.2953C31.7887 23.4024 32.056 23.5709 32.2859 23.8012C32.5162 24.0231 32.6972 24.3071 32.8286 24.6523C32.96 24.9897 33.0259 25.3882 33.0259 25.849L28.6856 25.923C28.6856 26.5479 28.7511 27.0989 28.8826 27.576C29.0225 28.0448 29.2443 28.4108 29.5486 28.6737C29.8529 28.9289 30.2431 29.0563 30.7199 29.0563C30.975 29.0563 31.2338 29.0111 31.497 28.9207C31.768 28.83 32.019 28.7067 32.2489 28.5504C32.4791 28.3941 32.6642 28.2215 32.8038 28.0323L33.1 28.2793C32.8778 28.6245 32.6106 28.9 32.2985 29.1056C31.986 29.3111 31.6654 29.4593 31.3367 29.5496C31.0076 29.6403 30.7036 29.6855 30.4241 29.6855ZM28.7223 25.4049H31.8668C31.8668 25.109 31.8216 24.8249 31.7313 24.5538C31.6488 24.2742 31.5092 24.0479 31.3119 23.8753C31.1145 23.6942 30.8558 23.6038 30.5352 23.6038C30.0583 23.6038 29.6596 23.7479 29.339 24.0357C29.0266 24.3153 28.8211 24.7716 28.7223 25.4049ZM36.651 29.6855C36.2401 29.6855 35.8743 29.6278 35.5537 29.5126C35.2331 29.4059 34.9699 29.2826 34.7644 29.1426L34.8137 29.5744H34.2958L34.2217 27.4526H34.6041C34.6204 27.7897 34.7152 28.0941 34.8877 28.3656C35.0603 28.6285 35.2824 28.8341 35.5537 28.9822C35.8247 29.1304 36.1168 29.2044 36.4289 29.2044C36.6429 29.2044 36.8524 29.1715 37.0579 29.1056C37.2633 29.0315 37.4362 28.9248 37.5758 28.7848C37.7157 28.637 37.7854 28.4519 37.7854 28.2297C37.7854 27.9997 37.7157 27.8104 37.5758 27.6623C37.4444 27.506 37.2674 27.3704 37.0457 27.2552C36.8236 27.1401 36.5851 27.0334 36.3304 26.9345C36.0839 26.836 35.8373 26.733 35.5907 26.626C35.3438 26.5193 35.1139 26.3919 34.8999 26.2438C34.6945 26.0956 34.5301 25.9149 34.4068 25.7008C34.2835 25.4871 34.2217 25.2238 34.2217 24.9116C34.2217 24.7386 34.2547 24.5497 34.3206 24.3438C34.3864 24.1383 34.4972 23.945 34.6534 23.7642C34.8096 23.575 35.0232 23.4227 35.2946 23.3079C35.5659 23.1846 35.9113 23.1227 36.3304 23.1227C36.5525 23.1227 36.7991 23.1598 37.0701 23.2338C37.3415 23.3079 37.6047 23.4475 37.8594 23.6531L37.8349 23.1846H38.3525V25.3431H37.9582C37.9416 25.0553 37.876 24.7797 37.7609 24.5168C37.6458 24.2453 37.4773 24.0231 37.2552 23.8505C37.0334 23.6697 36.7454 23.579 36.3922 23.579C36.0139 23.579 35.7181 23.6738 35.5041 23.8627C35.2905 24.052 35.1835 24.2701 35.1835 24.5168C35.1835 24.7716 35.2616 24.9853 35.4179 25.1582C35.5822 25.3227 35.7921 25.4664 36.0468 25.5901C36.3016 25.7134 36.5729 25.8327 36.8606 25.9475C37.173 26.0793 37.4773 26.223 37.7731 26.3793C38.0689 26.5356 38.3114 26.733 38.5006 26.9715C38.6898 27.2019 38.7842 27.5019 38.7842 27.8719C38.7842 28.2833 38.6775 28.6245 38.4636 28.8959C38.2581 29.1674 37.9908 29.3648 37.6621 29.4881C37.3415 29.6196 37.0046 29.6855 36.651 29.6855Z" fill="#252626"/>
</svg>
