<svg width="37" height="34" viewBox="0 0 37 34" fill="none" xmlns="http://www.w3.org/2000/svg">
<path d="M36.0333 33.9854C35.792 33.9857 35.5593 33.8955 35.3814 33.7325L0.314304 1.67928C0.125135 1.50636 0.0124274 1.26539 0.000967468 1.0094C-0.0104925 0.7534 0.0802316 0.503339 0.253194 0.31422C0.426157 0.125101 0.667187 0.0124241 0.923253 0.000967211C1.17932 -0.0104897 1.42945 0.0802101 1.61862 0.253126L36.6857 32.3064C36.8295 32.4378 36.9302 32.6097 36.9745 32.7993C37.0189 32.989 37.0049 33.1876 36.9344 33.3691C36.8638 33.5507 36.74 33.7067 36.5792 33.8167C36.4184 33.9267 36.2281 33.9855 36.0333 33.9854Z" fill="#3F3D56"/>
</svg>
