<svg width="389" height="271" viewBox="0 0 389 271" fill="none" xmlns="http://www.w3.org/2000/svg">
<path d="M380.219 271H8.68755C6.38428 270.997 4.17611 270.081 2.54745 268.453C0.918788 266.825 0.002634 264.617 0 262.315V8.68522C0.002634 6.38257 0.918788 4.17499 2.54745 2.54677C4.17611 0.918542 6.38428 0.0026333 8.68755 0H380.219C382.522 0.0026333 384.73 0.918542 386.359 2.54677C387.988 4.17499 388.904 6.38257 388.906 8.68522V262.315C388.904 264.617 387.988 266.825 386.359 268.453C384.73 270.081 382.522 270.997 380.219 271ZM8.68755 1.93005C6.8961 1.93206 5.17861 2.64441 3.91186 3.91081C2.64512 5.17722 1.93258 6.89426 1.93057 8.68522V262.315C1.93258 264.106 2.64512 265.823 3.91186 267.089C5.17861 268.356 6.8961 269.068 8.68755 269.07H380.219C382.01 269.068 383.728 268.356 384.995 267.089C386.261 265.823 386.974 264.106 386.976 262.315V8.68522C386.974 6.89426 386.261 5.17722 384.995 3.91081C383.728 2.64441 382.01 1.93206 380.219 1.93005H8.68755Z" fill="#3F3D56"/>
</svg>
