<svg width="20" height="20" viewBox="0 0 20 20" fill="none" xmlns="http://www.w3.org/2000/svg">
<g clip-path="url(#clip0_45_153)">
<path d="M11.9808 1.14958L13.1421 1.99958C13.3333 2.13958 13.5558 2.23208 13.7896 2.26833L15.2121 2.48708C15.9159 2.59528 16.5669 2.92512 17.0705 3.42867C17.574 3.93222 17.9039 4.58322 18.0121 5.28708L18.2296 6.71083C18.2658 6.94458 18.3583 7.16708 18.4983 7.35833L19.3483 8.51833C19.7703 9.09271 19.9979 9.78684 19.9979 10.4996C19.9979 11.2123 19.7703 11.9064 19.3483 12.4808L18.4983 13.6408C18.3577 13.8318 18.2655 14.054 18.2296 14.2883L18.0108 15.7108C17.9028 16.4151 17.5729 17.0665 17.0691 17.5703C16.5653 18.0741 15.9138 18.4041 15.2096 18.5121L13.7871 18.7308C13.5526 18.7666 13.3304 18.8588 13.1396 18.9996L11.9796 19.8496C11.4052 20.2716 10.7111 20.4992 9.99833 20.4992C9.28559 20.4992 8.59146 20.2716 8.01708 19.8496L6.85708 18.9996C6.66613 18.859 6.44395 18.7668 6.20958 18.7308L4.78708 18.5121C4.08322 18.4039 3.43222 18.074 2.92867 17.5705C2.42512 17.0669 2.09528 16.4159 1.98708 15.7121L1.76833 14.2896C1.73257 14.0551 1.64033 13.8329 1.49958 13.6421L0.649579 12.4821C0.227577 11.9077 0 11.2136 0 10.5008C0 9.78809 0.227577 9.09396 0.649579 8.51958L1.49958 7.35958C1.63958 7.16833 1.73208 6.94583 1.76833 6.71208L1.98708 5.28708C2.09528 4.58322 2.42512 3.93222 2.92867 3.42867C3.43222 2.92512 4.08322 2.59528 4.78708 2.48708L6.21083 2.26833C6.44458 2.23208 6.66708 2.13958 6.85833 1.99958L8.01833 1.14958C8.59271 0.727577 9.28684 0.5 9.99958 0.5C10.7123 0.5 11.4064 0.727577 11.9808 1.14958ZM9.12833 2.65958L7.96958 3.50958C7.53461 3.82966 7.02846 4.03942 6.49458 4.12083L5.07333 4.33833C4.76312 4.38582 4.47617 4.5311 4.25426 4.75301C4.03235 4.97492 3.88707 5.26187 3.83958 5.57208L3.62208 6.99208C3.54033 7.52586 3.33061 8.03194 3.01083 8.46708L2.16083 9.62708C1.97577 9.87988 1.87602 10.185 1.87602 10.4983C1.87602 10.8116 1.97577 11.1168 2.16083 11.3696L3.01083 12.5283C3.33083 12.9633 3.54083 13.4696 3.62208 14.0033L3.83958 15.4246C3.93708 16.0608 4.43708 16.5608 5.07333 16.6583L6.49333 16.8758C7.02721 16.9572 7.53336 17.167 7.96833 17.4871L9.12833 18.3371C9.64583 18.7183 10.3521 18.7183 10.8708 18.3371L12.0296 17.4871C12.4646 17.167 12.9707 16.9572 13.5046 16.8758L14.9258 16.6583C15.236 16.6107 15.5228 16.4653 15.7447 16.2434C15.9666 16.0216 16.1119 15.7347 16.1596 15.4246L16.3771 14.0046C16.4585 13.4707 16.6682 12.9646 16.9883 12.5296L17.8383 11.3696C18.0241 11.1171 18.1243 10.8118 18.1243 10.4983C18.1243 10.1848 18.0241 9.87957 17.8383 9.62708L16.9883 8.46833C16.6689 8.03297 16.4593 7.52699 16.3771 6.99333L16.1596 5.57208C16.1121 5.26187 15.9668 4.97492 15.7449 4.75301C15.523 4.5311 15.236 4.38582 14.9258 4.33833L13.5058 4.12083C12.972 4.03908 12.466 3.82936 12.0308 3.50958L10.8708 2.65958C10.6183 2.47378 10.3131 2.37356 9.99958 2.37356C9.6861 2.37356 9.38082 2.47378 9.12833 2.65958ZM14.0996 8.97458L9.41208 13.6621C9.2363 13.8376 8.99802 13.9363 8.74958 13.9363C8.50114 13.9363 8.26286 13.8376 8.08708 13.6621L5.89958 11.4746C5.73407 11.2968 5.64394 11.0617 5.64813 10.8188C5.65233 10.5759 5.75052 10.3441 5.92208 10.1721C6.09408 10.0005 6.32589 9.90233 6.56879 9.89814C6.81169 9.89394 7.04675 9.98407 7.22458 10.1496L8.74958 11.6746L12.7746 7.64958C12.9524 7.48407 13.1875 7.39394 13.4304 7.39814C13.6733 7.40233 13.9051 7.50052 14.0771 7.67208C14.2486 7.84408 14.3468 8.0759 14.351 8.31879C14.3552 8.56169 14.2651 8.79675 14.0996 8.97458Z" fill="#9EB725"/>
</g>
<defs>
<clipPath id="clip0_45_153">
<rect width="20" height="20" fill="white"/>
</clipPath>
</defs>
</svg>
