<svg width="22" height="22" viewBox="0 0 22 22" fill="none" xmlns="http://www.w3.org/2000/svg">
<path d="M4.62 17.6H6.82C6.941 17.6 7.04 17.501 7.04 17.38V4.62C7.04 4.499 6.941 4.4 6.82 4.4H4.62C4.499 4.4 4.4 4.499 4.4 4.62V17.38C4.4 17.501 4.499 17.6 4.62 17.6ZM9.9 9.9H12.1C12.221 9.9 12.32 9.801 12.32 9.68V4.62C12.32 4.499 12.221 4.4 12.1 4.4H9.9C9.779 4.4 9.68 4.499 9.68 4.62V9.68C9.68 9.801 9.779 9.9 9.9 9.9ZM15.18 11.88H17.38C17.501 11.88 17.6 11.781 17.6 11.66V4.62C17.6 4.499 17.501 4.4 17.38 4.4H15.18C15.059 4.4 14.96 4.499 14.96 4.62V11.66C14.96 11.781 15.059 11.88 15.18 11.88ZM21.12 0H0.88C0.39325 0 0 0.39325 0 0.88V21.12C0 21.6067 0.39325 22 0.88 22H21.12C21.6067 22 22 21.6067 22 21.12V0.88C22 0.39325 21.6067 0 21.12 0ZM20.02 20.02H1.98V1.98H20.02V20.02Z" fill="white"/>
</svg>
