<svg width="23" height="23" viewBox="0 0 23 23" fill="none" xmlns="http://www.w3.org/2000/svg">
<path d="M4.43026 1.771C3.96056 1.771 3.5101 1.95758 3.17797 2.28971C2.84585 2.62184 2.65926 3.0723 2.65926 3.542V4.4275C2.65926 4.66234 2.56597 4.88757 2.3999 5.05364C2.23384 5.2197 2.00861 5.31299 1.77376 5.31299C1.53891 5.31299 1.31368 5.2197 1.14762 5.05364C0.981554 4.88757 0.888261 4.66234 0.888261 4.4275V3.542C0.888261 2.6026 1.26143 1.70168 1.92569 1.03743C2.58994 0.373173 3.49086 0 4.43026 0C5.36965 0 6.27057 0.373173 6.93483 1.03743C7.59908 1.70168 7.97225 2.6026 7.97225 3.542V7.96949H16.8272V3.542C16.8272 3.0723 16.6407 2.62184 16.3085 2.28971C15.9764 1.95758 15.5259 1.771 15.0562 1.771C14.5865 1.771 14.1361 1.95758 13.804 2.28971C13.4718 2.62184 13.2852 3.0723 13.2852 3.542V4.4275C13.2852 4.66234 13.192 4.88757 13.0259 5.05364C12.8598 5.2197 12.6346 5.31299 12.3997 5.31299C12.1649 5.31299 11.9397 5.2197 11.7736 5.05364C11.6075 4.88757 11.5142 4.66234 11.5142 4.4275V3.542C11.5142 2.6026 11.8874 1.70168 12.5517 1.03743C13.2159 0.373173 14.1169 0 15.0562 0C15.9956 0 16.8966 0.373173 17.5608 1.03743C18.2251 1.70168 18.5982 2.6026 18.5982 3.542V14.0068C18.0142 14.1154 17.4213 14.1694 16.8272 14.168V9.74049H7.97225V11.3946C7.3896 11.2568 6.79771 11.1615 6.20126 11.1095V3.542C6.20126 3.0723 6.01467 2.62184 5.68254 2.28971C5.35042 1.95758 4.89995 1.771 4.43026 1.771ZM1.47446 15.3156C1.29903 15.4718 1.06874 15.5519 0.834261 15.5382C0.599779 15.5246 0.380311 15.4184 0.224136 15.243C0.0679617 15.0675 -0.0121262 14.8373 0.00149096 14.6028C0.0151082 14.3683 0.121315 14.1488 0.296747 13.9927H0.298518V13.9909L0.301175 13.9891L0.307373 13.9838L0.322427 13.9705L0.369358 13.9316C0.600425 13.7497 0.8446 13.5851 1.09989 13.4392C1.77092 13.0605 2.49421 12.783 3.24634 12.6157C5.12892 12.1889 7.79692 12.258 11.1105 14.0095C14.1212 15.6007 16.7794 15.6627 18.6762 15.3422C19.4443 15.214 20.1957 15.0004 20.9165 14.7055C21.1654 14.6028 21.4087 14.4869 21.6452 14.3584L21.6754 14.3407L21.6771 14.3389H21.6798C21.8796 14.2263 22.1153 14.1956 22.3373 14.2533C22.5593 14.311 22.7502 14.4526 22.8699 14.6482C22.9896 14.8439 23.0287 15.0783 22.979 15.3023C22.9293 15.5262 22.7946 15.722 22.6034 15.8487L22.5998 15.8513L22.5936 15.8549L22.5759 15.8655C22.4921 15.9155 22.4064 15.9625 22.3191 16.0063C22.1491 16.0948 21.9047 16.2135 21.593 16.3428C20.9705 16.5996 20.0779 16.9006 18.9719 17.0875C16.7511 17.4638 13.6882 17.3753 10.2834 15.575C7.32938 14.0139 5.09261 14.013 3.63862 14.3433C2.90189 14.5116 2.34491 14.7684 1.9792 14.9773C1.80852 15.0743 1.64489 15.1832 1.48951 15.3032L1.47446 15.3156ZM1.47446 20.6286C1.29903 20.7848 1.06874 20.8648 0.834261 20.8512C0.599779 20.8376 0.380311 20.7314 0.224136 20.556C0.0679617 20.3805 -0.0121262 20.1503 0.00149096 19.9158C0.0151082 19.6813 0.121315 19.4618 0.296747 19.3057H0.298518V19.3039L0.301175 19.3021L0.307373 19.2968L0.322427 19.2835L0.369358 19.2446C0.600425 19.0627 0.8446 18.8981 1.09989 18.7522C1.77092 18.3735 2.49421 18.096 3.24634 17.9287C5.12892 17.5019 7.79692 17.571 11.1105 19.3225C14.1212 20.9137 16.7794 20.9757 18.6762 20.6552C19.4443 20.527 20.1957 20.3134 20.9165 20.0185C21.1654 19.9158 21.4087 19.7999 21.6452 19.6714L21.6754 19.6537L21.6771 19.6519H21.6798C21.8796 19.5393 22.1153 19.5086 22.3373 19.5663C22.5593 19.624 22.7502 19.7656 22.8699 19.9612C22.9896 20.1569 23.0287 20.3913 22.979 20.6153C22.9293 20.8392 22.7946 21.035 22.6034 21.1617L22.5998 21.1643L22.5936 21.1679L22.5759 21.1785C22.4921 21.2285 22.4064 21.2755 22.3191 21.3193C22.1491 21.4078 21.9047 21.5265 21.593 21.6558C20.9705 21.9126 20.0779 22.2136 18.9719 22.4005C16.7511 22.7768 13.6882 22.6883 10.2834 20.888C7.32938 19.3269 5.09261 19.326 3.63862 19.6563C2.90189 19.8246 2.34491 20.0813 1.9792 20.2903C1.80852 20.3873 1.64489 20.4962 1.48951 20.6162L1.47446 20.6286Z" fill="white"/>
</svg>
