<svg width="24" height="32" viewBox="0 0 24 32" fill="none" xmlns="http://www.w3.org/2000/svg">
<path d="M3.19786 21.0775C2.52152 20.2238 1.84368 19.3388 1.36402 18.3721C0.648018 16.9296 0.164351 15.3906 0.0406842 13.7589C-0.190816 10.7002 0.561687 7.89588 2.39952 5.44696C4.57919 2.54267 7.43468 0.613625 11.1308 0.112347C13.7449 -0.241998 16.201 0.247719 18.5307 1.49857C20.0452 2.3118 21.4067 3.29207 22.4705 4.62904C22.726 4.95004 23.0155 5.30137 23.287 5.6708C23.9349 6.55272 23.6077 7.69869 22.7624 8.39766C22.0935 8.95071 21.2845 9.62137 20.5692 10.2186C19.673 10.9669 18.3475 10.9598 17.4364 10.2295C15.942 9.03163 14.1922 7.71997 13.2897 7.05048C12.931 6.78443 12.439 6.79364 12.0875 7.06908L6.52552 11.4264C6.29152 11.6097 6.15335 11.8842 6.14935 12.1795C6.13285 13.425 6.09352 16.912 6.13369 19.3145C6.14252 19.8454 6.58152 20.2656 7.11769 20.2656C7.74719 20.2656 8.58819 20.2656 9.33352 20.2656C9.88186 20.2656 10.3257 19.8253 10.3235 19.2823C10.3207 18.6274 10.3169 17.9662 10.3187 17.3114C10.32 16.7795 10.753 16.3499 11.2902 16.3479C12.1845 16.3447 13.185 16.3507 14.0852 16.3543C14.6515 16.3564 15.1057 16.8249 15.1007 17.386C15.095 18.0258 15.1007 18.7273 15.1079 19.2777C15.115 19.8228 15.5727 20.2532 16.1229 20.2378L18.297 20.1772C18.8342 20.1621 19.2619 19.7272 19.2619 19.1949C19.2619 18.791 19.2619 18.3096 19.2619 17.8546C19.2619 17.1469 19.998 16.6624 20.668 16.9083C21.5565 17.2344 22.5057 17.5554 23.3872 17.8827C24.009 18.1138 24.1947 18.8781 23.7717 19.3852C20.4684 23.3447 16.938 27.9036 13.4254 31.6881C13.0299 32.1142 12.35 32.1013 11.967 31.6643C8.94269 28.2157 6.04686 24.6739 3.19786 21.0775Z" fill="#5330C1"/>
</svg>
