<svg width="40" height="40" viewBox="0 0 40 40" fill="none" xmlns="http://www.w3.org/2000/svg">
<path fill-rule="evenodd" clip-rule="evenodd" d="M20.0006 3.33325C18.6823 3.33325 17.4173 3.85659 16.484 4.78992L14.9956 6.27825C14.6878 6.58561 14.2706 6.75825 13.8356 6.75825H11.734C11.0806 6.75803 10.4335 6.88656 9.82985 7.1365C9.22616 7.38644 8.67763 7.75289 8.21562 8.21491C7.7536 8.67692 7.38715 9.22545 7.13721 9.82914C6.88728 10.4328 6.75874 11.0799 6.75896 11.7333V13.8366C6.75878 14.2715 6.58617 14.6887 6.27896 14.9966L4.79063 16.4849C3.85795 17.4176 3.33398 18.6826 3.33398 20.0016C3.33398 21.3206 3.85795 22.5856 4.79063 23.5182L6.27896 25.0066C6.58632 25.3144 6.75896 25.7316 6.75896 26.1666V28.2699C6.75896 29.5889 7.28294 30.8539 8.21562 31.7866C9.1483 32.7193 10.4133 33.2432 11.7323 33.2432H13.8356C14.2706 33.2432 14.689 33.4166 14.9956 33.7232L16.484 35.2116C17.4166 36.1443 18.6816 36.6682 20.0006 36.6682C21.3196 36.6682 22.5846 36.1443 23.5173 35.2116L25.0056 33.7232C25.3134 33.4159 25.7306 33.2432 26.1656 33.2432H28.269C29.588 33.2432 30.853 32.7193 31.7856 31.7866C32.7183 30.8539 33.2423 29.5889 33.2423 28.2699V26.1666C33.2423 25.7316 33.4156 25.3132 33.7223 25.0066L35.2106 23.5182C36.1433 22.5856 36.6673 21.3206 36.6673 20.0016C36.6673 18.6826 36.1433 17.4176 35.2106 16.4849L33.7223 14.9966C33.4149 14.6888 33.2423 14.2716 33.2423 13.8366V11.7333C33.2423 10.4142 32.7183 9.14925 31.7856 8.21657C30.853 7.28389 29.588 6.75992 28.269 6.75992H26.1656C25.7306 6.75992 25.3134 6.58728 25.0056 6.27992L23.5173 4.79159C23.0556 4.32947 22.5074 3.96283 21.904 3.7126C21.3006 3.46238 20.6538 3.33347 20.0006 3.33325ZM26.139 16.2166C26.3018 16.0637 26.4322 15.8797 26.5225 15.6754C26.6127 15.4711 26.661 15.2508 26.6645 15.0275C26.668 14.8042 26.6265 14.5825 26.5426 14.3755C26.4587 14.1686 26.3341 13.9806 26.1761 13.8227C26.0182 13.6649 25.8301 13.5404 25.6231 13.4566C25.416 13.3729 25.1943 13.3316 24.971 13.3352C24.7477 13.3388 24.5274 13.3873 24.3232 13.4777C24.119 13.5681 23.9351 13.6987 23.7823 13.8616L16.694 20.9499L14.5656 18.8216C14.2531 18.5088 13.8292 18.3331 13.3871 18.3329C12.9449 18.3328 12.5209 18.5082 12.2081 18.8207C11.8954 19.1333 11.7196 19.5572 11.7195 19.9993C11.7193 20.4414 11.8948 20.8655 12.2073 21.1782L15.5156 24.4849C15.8282 24.7974 16.252 24.9729 16.694 24.9729C17.1359 24.9729 17.5597 24.7974 17.8723 24.4849L26.139 16.2182V16.2166Z" stroke="#140648" stroke-width="1.84641"/>
</svg>
