<svg width="391" height="453" viewBox="0 0 391 453" fill="none" xmlns="http://www.w3.org/2000/svg">
<g clip-path="url(#clip0_45_446)">
<path d="M252.459 120.405H249.678V44.1398C249.678 32.4332 245.025 21.2061 236.743 12.9282C228.46 4.65043 217.227 5.7578e-09 205.515 5.7578e-09H43.8488C38.0492 -9.36156e-05 32.3064 1.14152 26.9483 3.35967C21.5901 5.57781 16.7216 8.82905 12.6206 12.9277C8.51963 17.0264 5.26652 21.8923 3.04704 27.2476C0.827553 32.6028 -0.314848 38.3426 -0.314941 44.1391V462.534C-0.314941 474.241 4.33794 485.468 12.6201 493.746C20.9023 502.024 32.1353 506.674 43.8481 506.674H205.512C217.225 506.674 228.458 502.024 236.74 493.746C245.023 485.468 249.676 474.241 249.676 462.534V174.691H252.457L252.459 120.405Z" fill="#3F3D56"/>
<path d="M240.619 41.1832V465.489C240.618 474.365 237.09 482.877 230.811 489.154C224.532 495.431 216.017 498.958 207.136 498.962H42.1535C33.2696 498.963 24.749 495.437 18.4657 489.16C12.1824 482.883 8.65109 474.368 8.64844 465.489V41.1832C8.65109 32.3043 12.1822 23.79 18.4652 17.513C24.7482 11.236 33.2685 7.71029 42.1521 7.71143H62.1654C61.1828 10.1268 60.8087 12.7464 61.0762 15.34C61.3437 17.9337 62.2446 20.4219 63.6996 22.5861C65.1546 24.7503 67.1192 26.5241 69.4207 27.7517C71.7223 28.9792 74.2903 29.623 76.899 29.6263H170.958C173.567 29.623 176.135 28.9792 178.437 27.7517C180.738 26.5241 182.703 24.7503 184.158 22.5861C185.613 20.4219 186.514 17.9337 186.781 15.34C187.049 12.7464 186.675 10.1268 185.692 7.71143H207.13C216.01 7.71294 224.526 11.239 230.806 17.5145C237.086 23.79 240.616 32.3011 240.619 41.1768V41.1832Z" fill="white"/>
<path d="M199.724 285.589H53.1173C52.3976 285.588 51.7075 285.302 51.1986 284.793C50.6896 284.284 50.4033 283.595 50.4026 282.875V246.528C50.4035 245.809 50.6899 245.119 51.1988 244.611C51.7077 244.102 52.3976 243.816 53.1173 243.815H199.724C200.443 243.816 201.133 244.102 201.642 244.611C202.151 245.119 202.437 245.809 202.438 246.528V282.876C202.437 283.595 202.151 284.285 201.642 284.794C201.133 285.302 200.443 285.588 199.724 285.589V285.589ZM53.1173 244.9C52.6854 244.9 52.2712 245.072 51.9658 245.377C51.6604 245.683 51.4886 246.097 51.4882 246.528V282.876C51.4886 283.308 51.6604 283.722 51.9658 284.027C52.2712 284.332 52.6854 284.504 53.1173 284.504H199.724C200.156 284.504 200.57 284.332 200.875 284.027C201.181 283.722 201.352 283.308 201.353 282.876V246.528C201.352 246.097 201.181 245.683 200.875 245.377C200.57 245.072 200.156 244.9 199.724 244.9H53.1173Z" fill="#E6E6E6"/>
<path d="M98.4572 256.905C97.9531 256.905 97.4697 257.105 97.1133 257.461C96.7569 257.817 96.5566 258.301 96.5566 258.804C96.5566 259.308 96.7569 259.791 97.1133 260.148C97.4697 260.504 97.9531 260.704 98.4572 260.704H188.049C188.553 260.723 189.044 260.542 189.414 260.199C189.784 259.857 190.002 259.382 190.022 258.878C190.041 258.375 189.859 257.884 189.517 257.514C189.174 257.145 188.699 256.926 188.195 256.907C188.167 256.906 188.139 256.905 188.111 256.905L98.4572 256.905Z" fill="#E6E6E6"/>
<path d="M98.4572 268.3C97.9531 268.3 97.4697 268.5 97.1133 268.856C96.7569 269.212 96.5566 269.696 96.5566 270.199C96.5566 270.703 96.7569 271.186 97.1133 271.543C97.4697 271.899 97.9531 272.099 98.4572 272.099H188.049C188.553 272.118 189.044 271.937 189.414 271.594C189.784 271.252 190.002 270.777 190.022 270.273C190.041 269.77 189.859 269.279 189.517 268.909C189.174 268.54 188.699 268.321 188.195 268.302C188.167 268.301 188.139 268.3 188.111 268.301L98.4572 268.3Z" fill="#E6E6E6"/>
<path d="M199.724 346.172H53.1173C52.3976 346.171 51.7075 345.885 51.1986 345.376C50.6896 344.867 50.4033 344.178 50.4026 343.458V307.111C50.4035 306.392 50.6899 305.702 51.1988 305.194C51.7077 304.685 52.3976 304.399 53.1173 304.398H199.724C200.443 304.399 201.133 304.685 201.642 305.194C202.151 305.702 202.437 306.392 202.438 307.111V343.459C202.437 344.178 202.151 344.868 201.642 345.376C201.133 345.885 200.443 346.171 199.724 346.172ZM53.1173 305.483C52.6854 305.483 52.2712 305.655 51.9658 305.96C51.6604 306.266 51.4886 306.68 51.4882 307.111V343.459C51.4886 343.891 51.6604 344.305 51.9658 344.61C52.2712 344.915 52.6854 345.087 53.1173 345.087H199.724C200.156 345.087 200.57 344.915 200.875 344.61C201.181 344.305 201.352 343.891 201.353 343.459V307.111C201.352 306.68 201.181 306.266 200.875 305.96C200.57 305.655 200.156 305.483 199.724 305.483H53.1173Z" fill="#E6E6E6"/>
<path d="M98.4572 317.685C97.9531 317.685 97.4697 317.885 97.1133 318.241C96.7569 318.597 96.5566 319.08 96.5566 319.584C96.5566 320.088 96.7569 320.571 97.1133 320.927C97.4697 321.284 97.9531 321.484 98.4572 321.484H188.049C188.546 321.481 189.022 321.284 189.375 320.934C189.729 320.585 189.931 320.111 189.939 319.615C189.947 319.118 189.761 318.638 189.419 318.278C189.077 317.917 188.608 317.704 188.111 317.685H98.4572V317.685Z" fill="#E6E6E6"/>
<path d="M98.4572 329.083C97.9531 329.083 97.4697 329.283 97.1133 329.639C96.7569 329.995 96.5566 330.478 96.5566 330.982C96.5566 331.486 96.7569 331.969 97.1133 332.325C97.4697 332.681 97.9531 332.882 98.4572 332.882H188.049C188.546 332.879 189.022 332.682 189.375 332.332C189.729 331.983 189.931 331.509 189.939 331.013C189.947 330.516 189.761 330.036 189.419 329.676C189.077 329.315 188.608 329.102 188.111 329.083H98.4572V329.083Z" fill="#E6E6E6"/>
<path d="M199.724 406.953H53.1173C52.3976 406.952 51.7075 406.666 51.1986 406.157C50.6896 405.649 50.4033 404.959 50.4026 404.239V367.893C50.4035 367.173 50.6899 366.484 51.1988 365.975C51.7077 365.466 52.3976 365.18 53.1173 365.179H199.724C200.443 365.18 201.133 365.466 201.642 365.975C202.151 366.484 202.437 367.173 202.438 367.893V404.24C202.437 404.96 202.151 405.649 201.642 406.158C201.133 406.666 200.443 406.953 199.724 406.954V406.953ZM53.1173 366.264C52.6854 366.265 52.2712 366.436 51.9658 366.742C51.6604 367.047 51.4886 367.461 51.4882 367.893V404.24C51.4886 404.672 51.6604 405.086 51.9658 405.391C52.2712 405.696 52.6854 405.868 53.1173 405.869H199.724C200.156 405.868 200.57 405.696 200.875 405.391C201.181 405.086 201.352 404.672 201.353 404.24V367.893C201.352 367.461 201.181 367.047 200.875 366.742C200.57 366.436 200.156 366.265 199.724 366.264H53.1173Z" fill="#E6E6E6"/>
<path d="M98.4572 378.468C97.9531 378.468 97.4697 378.668 97.1133 379.024C96.7569 379.38 96.5566 379.864 96.5566 380.367C96.5566 380.871 96.7569 381.354 97.1133 381.711C97.4697 382.067 97.9531 382.267 98.4572 382.267H188.049C188.299 382.276 188.548 382.237 188.782 382.15C189.016 382.064 189.231 381.932 189.414 381.762C189.597 381.593 189.745 381.389 189.849 381.162C189.953 380.935 190.012 380.69 190.022 380.441C190.031 380.192 189.991 379.943 189.905 379.709C189.818 379.475 189.686 379.26 189.517 379.077C189.347 378.894 189.143 378.746 188.916 378.642C188.689 378.538 188.444 378.479 188.195 378.47C188.167 378.469 188.139 378.468 188.111 378.468L98.4572 378.468Z" fill="#E6E6E6"/>
<path d="M98.4572 389.865C97.9531 389.865 97.4697 390.065 97.1133 390.422C96.7569 390.778 96.5566 391.261 96.5566 391.765C96.5566 392.269 96.7569 392.752 97.1133 393.108C97.4697 393.464 97.9531 393.664 98.4572 393.664H188.049C188.299 393.674 188.548 393.634 188.782 393.548C189.016 393.461 189.231 393.329 189.414 393.16C189.597 392.99 189.745 392.786 189.849 392.56C189.953 392.333 190.012 392.088 190.022 391.839C190.031 391.589 189.991 391.341 189.905 391.107C189.818 390.873 189.686 390.658 189.517 390.475C189.347 390.292 189.143 390.144 188.916 390.04C188.689 389.935 188.444 389.877 188.195 389.867C188.167 389.866 188.139 389.866 188.111 389.866H98.4572V389.865Z" fill="#E6E6E6"/>
<path d="M71.4075 275.875C77.7049 275.875 82.81 270.773 82.81 264.479C82.81 258.184 77.7049 253.082 71.4075 253.082C65.11 253.082 60.0049 258.184 60.0049 264.479C60.0049 270.773 65.11 275.875 71.4075 275.875Z" fill="url(#paint0_linear_45_446)"/>
<path d="M65.9487 262.35C65.8175 262.35 65.7112 263.2 65.7112 264.249C65.7112 265.298 65.8175 266.149 65.9487 266.149H77.1608C77.2921 266.166 77.4005 265.33 77.4026 264.281C77.4754 263.628 77.3954 262.967 77.1687 262.351H65.9487V262.35Z" fill="#E6E6E6"/>
<path d="M71.4075 336.681C77.7049 336.681 82.81 331.579 82.81 325.285C82.81 318.991 77.7049 313.888 71.4075 313.888C65.11 313.888 60.0049 318.991 60.0049 325.285C60.0049 331.579 65.11 336.681 71.4075 336.681Z" fill="url(#paint1_linear_45_446)"/>
<path d="M65.9487 323.156C65.8175 323.156 65.7112 324.007 65.7112 325.055C65.7112 326.104 65.8175 326.955 65.9487 326.955H77.1608C77.2921 326.972 77.4005 326.136 77.4026 325.088C77.4754 324.435 77.3954 323.774 77.1687 323.157L65.9487 323.156Z" fill="#E6E6E6"/>
<path d="M71.4075 397.463C77.7049 397.463 82.81 392.36 82.81 386.066C82.81 379.772 77.7049 374.669 71.4075 374.669C65.11 374.669 60.0049 379.772 60.0049 386.066C60.0049 392.36 65.11 397.463 71.4075 397.463Z" fill="url(#paint2_linear_45_446)"/>
<path d="M65.9487 383.938C65.8175 383.938 65.7112 384.788 65.7112 385.837C65.7112 386.885 65.8175 387.737 65.9487 387.737H77.1608C77.2921 387.754 77.4005 386.917 77.4026 385.869C77.4754 385.216 77.3954 384.555 77.1687 383.938L65.9487 383.938Z" fill="#E6E6E6"/>
<path d="M161.475 182.982C160.883 182.984 160.302 182.821 159.796 182.513C159.291 182.205 158.881 181.762 158.613 181.235C156.325 176.765 153.167 172.797 149.325 169.564C145.482 166.331 141.032 163.897 136.235 162.406C134.271 161.811 132.267 161.357 130.238 161.049L129.824 160.986L151.166 94.2964L151.527 94.3089C192.988 105.569 216.71 138.781 222.993 148.692C223.232 149.071 223.39 149.496 223.455 149.939C223.52 150.382 223.491 150.835 223.37 151.266C223.249 151.698 223.039 152.099 222.754 152.444C222.468 152.79 222.113 153.072 221.711 153.271L162.915 182.641C162.468 182.865 161.975 182.982 161.475 182.982Z" fill="#E6E6E6"/>
<path d="M289.464 325.082C289.686 324.141 290.112 323.26 290.712 322.501C291.311 321.743 292.07 321.125 292.934 320.691C293.799 320.257 294.748 320.018 295.715 319.99C296.682 319.963 297.643 320.147 298.531 320.531L314.425 303.212L317.395 315.058L301.845 329.688C301.102 331.136 299.852 332.261 298.333 332.85C296.815 333.439 295.133 333.451 293.606 332.883C292.08 332.315 290.815 331.207 290.051 329.769C289.288 328.331 289.078 326.663 289.463 325.081L289.464 325.082Z" fill="#FEB8B8"/>
<path d="M347.403 373.313L355.451 416.597C355.451 416.597 377.295 477.499 375.762 479.031C374.229 480.563 353.151 485.926 354.301 482.479C355.451 479.032 329.007 427.322 329.007 427.322L347.403 373.313Z" fill="#2F2E41"/>
<path d="M314.766 294.658C314.766 294.658 298.519 315.884 300.648 317.043C302.777 318.202 311.024 324.34 311.024 324.34L319.415 301.325L314.766 294.658Z" fill="#E4E4E4"/>
<path d="M310.228 316.082C310.228 316.082 307.546 336 308.696 340.213C309.845 344.427 309.079 463.934 308.313 465.849C307.547 467.763 305.245 474.275 306.397 477.339C307.548 480.403 323.259 488.064 325.558 485.383C327.858 482.702 344.721 385.028 344.721 385.028C344.721 385.028 368.482 326.041 363.117 320.296C357.752 314.551 310.228 316.082 310.228 316.082Z" fill="#2F2E41"/>
<path d="M344.707 188.072C355.078 188.072 363.485 179.669 363.485 169.303C363.485 158.938 355.078 150.535 344.707 150.535C334.336 150.535 325.928 158.938 325.928 169.303C325.928 179.669 334.336 188.072 344.707 188.072Z" fill="#FEB8B8"/>
<path d="M325.085 211.722C325.558 208.683 327.071 205.902 329.364 203.852L332.788 193.39H352.909L358.516 202.183C364.579 204.793 369.073 208.933 369.243 213.812C370.171 217.052 366.176 319.913 365.028 323.742C364.691 324.857 360.106 325.453 353.661 325.718C347.751 325.959 340.283 325.925 333.112 325.761C321.239 325.485 310.171 324.849 308.309 324.508C304.097 323.743 324.667 214.139 325.085 211.722Z" fill="#E4E4E4"/>
<path d="M342.874 348.123C343.689 347.603 344.38 346.91 344.899 346.094C345.417 345.278 345.75 344.358 345.874 343.399C345.998 342.44 345.911 341.466 345.617 340.545C345.324 339.623 344.832 338.778 344.176 338.067L355.282 317.353L343.114 318.463L334.434 337.963C333.312 339.143 332.661 340.693 332.607 342.321C332.552 343.948 333.096 345.539 334.137 346.792C335.178 348.044 336.642 348.872 338.253 349.117C339.863 349.362 341.508 349.008 342.875 348.122L342.874 348.123Z" fill="#FEB8B8"/>
<path d="M344.72 200.406C344.72 200.406 327.091 207.683 333.606 226.071C340.121 244.458 347.403 266.289 347.403 266.289C347.403 266.289 338.205 315.701 338.205 317.619C338.205 319.537 332.457 329.876 334.755 331.792C337.054 333.707 352.384 337.537 352.767 335.622C353.942 331.21 355.349 326.862 356.983 322.599C357.75 321.067 375.761 273.187 373.46 268.974C371.768 265.873 370.283 237.463 369.617 222.678C369.463 218.459 368.212 214.353 365.988 210.763C363.764 207.174 360.644 204.225 356.934 202.207C353.364 200.309 349.204 199.285 344.72 200.406Z" fill="#E4E4E4"/>
<path d="M351.935 177.692C350.508 177.035 348.856 176.899 347.314 176.49C341.797 175.027 338.101 169.583 339.281 164.656C339.498 164.029 339.596 163.368 339.571 162.705C339.365 161.246 337.654 160.304 336.014 159.97C334.375 159.635 332.629 159.685 331.062 159.146C329.928 158.745 328.923 158.045 328.153 157.121C327.383 156.197 326.876 155.083 326.685 153.895C326.443 151.588 327.031 149.269 328.345 147.357L328.938 148.846C329.817 148.21 330.49 147.332 330.874 146.318C331.517 146.395 332.131 146.63 332.662 147.003C333.192 147.375 333.622 147.873 333.912 148.451C334.863 148.941 335 146.931 336.052 146.634C336.509 146.583 336.969 146.683 337.363 146.919C339.48 147.781 341.938 147.044 344.211 146.566C348.155 145.743 352.227 145.739 356.173 146.554C358.786 147.098 361.373 148.046 363.243 149.73C364.677 151.138 365.803 152.827 366.55 154.692C368.556 159.099 369.88 163.868 369.218 168.575C368.617 172.524 366.757 176.174 363.914 178.983C362.4 180.507 357.459 185.821 354.75 184.915C351.342 183.775 355.946 179.543 351.935 177.692Z" fill="#2F2E41"/>
<path d="M125.662 195.665C128.814 195.665 131.369 193.111 131.369 189.962C131.369 186.812 128.814 184.258 125.662 184.258C122.511 184.258 119.956 186.812 119.956 189.962C119.956 193.111 122.511 195.665 125.662 195.665Z" fill="#3F3D56"/>
<path d="M87.3679 182.898C86.8456 182.898 86.3313 182.769 85.8699 182.524L27.4142 151.702C27.0265 151.498 26.6847 151.216 26.41 150.875C26.1354 150.533 25.9337 150.139 25.8173 149.716C25.7009 149.294 25.6724 148.852 25.7334 148.418C25.7945 147.984 25.9438 147.567 26.1723 147.193C33.9806 134.684 43.8688 123.6 55.4105 114.417C75.5975 98.4262 98.5598 90.4036 123.656 90.5383C133.068 90.5799 142.435 91.8474 151.52 94.3086L151.88 94.406L130.533 161.092L130.233 161.047C128.31 160.757 126.372 160.585 124.428 160.533C102.708 159.92 93.2954 174.702 90.256 181.085C90.0729 181.473 89.8127 181.818 89.4914 182.101C89.17 182.385 88.7943 182.599 88.3871 182.732C88.0585 182.842 87.7143 182.898 87.3679 182.898Z" fill="url(#paint3_linear_45_446)"/>
<path d="M151.433 94.6528L136.34 162.066C134.359 161.465 132.338 161.007 130.292 160.697L151.426 94.6528H151.433Z" fill="#3F3D56"/>
</g>
<defs>
<linearGradient id="paint0_linear_45_446" x1="71.4075" y1="253.082" x2="71.4075" y2="275.875" gradientUnits="userSpaceOnUse">
<stop stop-color="#7559B1"/>
<stop offset="1" stop-color="#32264B"/>
</linearGradient>
<linearGradient id="paint1_linear_45_446" x1="71.4075" y1="313.888" x2="71.4075" y2="336.681" gradientUnits="userSpaceOnUse">
<stop stop-color="#7559B1"/>
<stop offset="1" stop-color="#32264B"/>
</linearGradient>
<linearGradient id="paint2_linear_45_446" x1="71.4075" y1="374.669" x2="71.4075" y2="397.463" gradientUnits="userSpaceOnUse">
<stop stop-color="#7559B1"/>
<stop offset="1" stop-color="#32264B"/>
</linearGradient>
<linearGradient id="paint3_linear_45_446" x1="88.791" y1="90.5366" x2="88.791" y2="182.898" gradientUnits="userSpaceOnUse">
<stop stop-color="#7559B1"/>
<stop offset="1" stop-color="#32264B"/>
</linearGradient>
<clipPath id="clip0_45_446">
<rect width="391" height="453" fill="white"/>
</clipPath>
</defs>
</svg>
