<svg width="384" height="317" viewBox="0 0 384 317" fill="none" xmlns="http://www.w3.org/2000/svg">
<path d="M56.8005 307.224V9.77568C56.8005 4.38544 59.6568 0 63.1682 0H377.466C380.977 0 383.834 4.38544 383.834 9.77568V307.224C383.834 312.615 380.977 317 377.466 317H63.1682C59.6568 317 56.8005 312.615 56.8005 307.224ZM382.68 9.77568C382.68 5.35478 380.346 1.77095 377.466 1.77095H63.1682C60.2885 1.77095 57.9541 5.35478 57.9541 9.77568V307.224C57.9541 311.645 60.2885 315.229 63.1682 315.229H286.57C339.65 315.229 382.68 249.169 382.68 167.679V9.77568Z" fill="#433878"/>
<g clip-path="url(#clip0_45_612)">
<path d="M131 113.26H127.348V86.5372H131C133.788 86.5372 136.462 87.7092 138.434 89.7954C140.406 91.8815 141.514 94.7109 141.514 97.6612V102.109C141.517 103.573 141.247 105.022 140.721 106.375C140.194 107.727 139.42 108.957 138.443 109.993C137.467 111.028 136.306 111.85 135.029 112.411C133.752 112.972 132.383 113.26 131 113.26Z" fill="#DFE6F5"/>
<path d="M126.888 113.26H127.805C129.263 113.26 130.446 112.009 130.446 110.466V89.3535C130.446 87.8104 129.263 86.5595 127.805 86.5595H126.888C125.429 86.5595 124.247 87.8104 124.247 89.3535V110.466C124.247 112.009 125.429 113.26 126.888 113.26Z" fill="#535461"/>
<g opacity="0.1">
<path d="M130.999 113.261H127.347V86.5377H130.999C133.787 86.5377 136.461 87.7097 138.433 89.7958C140.405 91.882 141.512 94.7114 141.512 97.6617V102.11C141.516 103.573 141.246 105.022 140.719 106.375C140.193 107.728 139.419 108.957 138.442 109.993C137.465 111.029 136.305 111.851 135.028 112.411C133.751 112.972 132.381 113.261 130.999 113.261Z" fill="#ACA3BB"/>
<path d="M126.888 113.261H127.805C129.263 113.261 130.446 112.01 130.446 110.467V89.3545C130.446 87.8114 129.263 86.5604 127.805 86.5604H126.888C125.429 86.5604 124.247 87.8114 124.247 89.3545V110.467C124.247 112.01 125.429 113.261 126.888 113.261Z" fill="#ACA3BB"/>
</g>
<path d="M132.737 100.683H68.908V170.729H132.737V100.683Z" fill="#090814"/>
<path d="M130.558 158.775L126.703 188.397L124.888 202.32L124.22 207.434L118.624 218.974L108.349 240.153L88.5303 242.672L53.6623 190.652C53.6623 190.652 35.4071 153.743 63.1622 157.095C78.7247 158.979 82.4279 144.241 82.706 130.929C82.7759 124.227 82.2021 117.535 80.9935 110.955L108.745 125.218C108.1 128.397 107.614 131.319 107.289 133.982C105.936 144.879 107.058 151.673 109.404 155.79C115.65 166.756 130.558 158.775 130.558 158.775Z" fill="#FFFDFD"/>
<path d="M98.4441 134.448C116.18 134.448 130.558 119.237 130.558 100.474C130.558 81.7103 116.18 66.4995 98.4441 66.4995C80.7083 66.4995 66.3306 81.7103 66.3306 100.474C66.3306 119.237 80.7083 134.448 98.4441 134.448Z" fill="#FFFDFD"/>
<path d="M125.498 256.985C124.53 261.063 126.971 268.069 130.207 274.949C114.687 276.715 97.6694 275.796 97.6694 275.796L80.206 280.832L31.0479 295.931C28.9074 293.001 27.1936 289.318 25.7776 285.169L30.6497 279.155C45.9792 269.245 50.9898 256.857 51.7221 245.95C52.0133 241 51.5566 236.032 50.3691 231.235C49.4226 227.181 47.9926 223.271 46.1137 219.599L91.7474 219.825H92.1328L95.8833 228.843L96.0545 229.251L98.8458 235.959L108.359 217.923L111.659 212.28L113.509 209.11C113.509 209.11 140.866 202.388 141.264 219.6C141.311 221.574 141.238 223.55 141.045 225.515C139.684 239.356 132.526 248.56 126.596 254.833C126.05 255.43 125.67 256.175 125.498 256.985Z" fill="#ACA3BB"/>
<path d="M228.487 278.734C227.695 288.798 204.7 275.377 204.7 275.377C204.7 275.377 197.563 272.859 173.379 256.504C161.1 248.202 151.418 236.242 145.55 222.131C144.625 219.95 143.851 217.701 143.234 215.401L159.897 202.388L164.756 210.246L180.909 236.357L204.696 253.116C204.696 253.116 229.279 268.669 228.487 278.734Z" fill="#ED9DA0"/>
<path opacity="0.1" d="M126.695 188.396L124.212 207.419L118.617 218.96C115.149 218.02 111.564 217.664 107.991 217.904C111.933 217.329 114.481 191.261 114.481 191.261L114.708 191.207L126.695 188.396Z" fill="black"/>
<path d="M163.07 209.946C155.142 208.687 146.022 220.853 146.022 220.853C146.022 220.853 135.319 231.76 128.182 224.209C121.268 216.894 109.147 217.868 108.394 217.913C112.336 217.334 114.884 191.267 114.884 191.267L115.111 191.213L153.159 182.263C153.159 182.263 155.428 185.941 157.988 190.624C162.607 199.062 168.173 210.757 163.07 209.946Z" fill="#ACA3BB"/>
<path opacity="0.1" d="M130.558 158.775L126.704 188.397L124.888 202.32C119.571 201.898 113.124 201.142 113.124 201.142C113.124 201.142 119.862 171.362 108.761 155.849C108.761 155.849 108.996 155.849 109.42 155.803C115.651 166.756 130.558 158.775 130.558 158.775Z" fill="black"/>
<path d="M109.152 155.841C109.152 155.841 129.372 154.165 137.301 160.035C145.23 165.905 154.873 184.087 154.873 184.087L157.908 190.955C157.908 190.955 153.165 191.491 153.559 192.333C153.953 193.175 147.214 197.365 144.046 196.106C140.878 194.846 132.945 201.541 132.152 202.397C131.36 203.253 113.521 201.138 113.521 201.138C113.521 201.138 120.253 171.358 109.152 155.841Z" fill="#ACA3BB"/>
<path d="M151.967 268.67C142.848 279.993 96.0668 277.479 96.0668 277.479L78.6205 282.506L29.4623 297.607C17.8995 281.754 18.1579 243.976 18.7873 228.694C18.9586 224.59 19.1513 222.108 19.1513 222.108C19.1513 222.108 35.8009 211.202 43.336 222.108C44.6801 224.051 45.8062 226.769 46.761 229.921C51.1321 244.456 51.6664 268.244 51.6664 268.244L71.4888 266.147L100.288 258.9C102.273 258.4 104.306 258.149 106.346 258.152C118.286 258.189 159.794 258.95 151.967 268.67Z" fill="#FFFDFD"/>
<path d="M96.0488 228.405C96.0488 228.405 92.4827 229.243 85.3457 227.568C78.2087 225.892 75.4345 229.244 71.4703 230.924C67.5061 232.604 57.1968 233.442 53.2322 231.761C49.2676 230.081 45.3047 226.729 36.9637 230.503C28.6227 234.276 23.0883 226.725 14.7653 227.55C6.44223 228.374 0.889893 224.193 0.889893 224.193L9.735 202.579L12.3892 196.089L78.7207 191.29H79.0374L96.0488 228.405Z" fill="#ACA3BB"/>
<path d="M66.3308 158.775C66.3308 158.775 44.5266 154.16 34.2217 160.034C23.9168 165.909 15.9879 178.908 15.9879 178.908C15.9879 178.908 9.74093 196.453 10.6029 201.554C11.4648 206.656 25.1028 201.554 25.1028 201.554C25.1028 201.554 42.1505 197.36 44.531 203.652C46.9114 209.943 58.0126 206.587 58.0126 206.587C58.0126 206.587 81.0068 199.874 85.3696 207.424L66.3308 158.775Z" fill="#ACA3BB"/>
<path d="M141.205 192.723C139.245 198.185 133.431 200.907 127.994 201.944C122.633 202.962 117.14 202.91 111.798 201.79C116.53 196.577 119.593 189.922 120.553 182.767C122.013 171.646 118.258 160.297 119.804 149.196C121.392 137.797 128.413 127.795 129.629 116.343C127.214 117.992 124.436 114.858 123.169 112.127C120.846 107.106 118.884 101.906 117.3 96.5731C115.334 89.9512 113.577 82.5333 108.172 78.6007C107.217 77.9034 105.929 77.3418 104.94 77.9891C104.216 78.4418 103.932 79.3977 103.724 80.2535C101.866 87.9532 92.473 94.0043 89.814 101.446C87.2837 108.507 82.7186 114.581 80.2221 121.67C74.5024 137.885 89.598 157.877 90.4972 175.161C90.8997 182.793 90.3001 190.442 89.701 198.056C89.6024 199.275 89.4185 200.651 88.4637 201.336C87.838 201.695 87.1266 201.852 86.4174 201.788C83.2093 201.808 80.0218 201.244 76.9946 200.12C75.7744 199.667 74.5502 199.115 73.2572 199.092C71.3476 199.06 69.6097 200.17 67.7772 200.75C61.5994 202.715 55.1689 198.508 50.6822 193.607C46.1955 188.707 42.3937 182.769 36.6229 179.738C34.7347 178.742 32.2645 177.301 32.7686 175.132C33.0112 174.395 33.4357 173.739 33.998 173.233C36.3355 170.747 38.7931 168.341 40.7066 165.479C43.5921 161.153 45.0948 155.994 46.559 150.929C48.674 143.601 50.8101 136.091 50.4133 128.441C50.2249 124.65 49.4116 120.923 49.0993 117.118C48.4826 109.582 49.8785 102.045 51.2656 94.6256C52.2072 89.5708 53.2308 84.3307 56.171 80.2225C58.1704 77.4326 60.9188 75.3627 63.1621 72.7855C66.5101 68.9396 68.608 64.0938 71.3222 59.7229C74.0364 55.352 77.7168 51.2123 82.5478 50.1026C85.4718 49.4279 88.5158 49.9441 91.47 50.4649C93.829 50.8861 96.244 51.3207 98.4743 52.2766C100.234 53.018 101.852 54.8539 103.655 55.2028C107.242 55.914 111.185 54.4239 115.026 55.384C122.496 57.2453 129.312 62.5448 132.626 69.9502C133.274 71.416 133.821 72.9298 134.261 74.4796C134.895 76.6537 135.378 78.8773 135.858 81.0968C135.961 81.5495 136.059 82.0389 136.153 82.5055C139.088 97.2529 137.193 107.99 135.914 123.333C134.634 138.675 134.321 159.228 138.354 174.061C140.037 180.258 143.363 186.712 141.205 192.723Z" fill="#433878"/>
<path opacity="0.1" d="M84.6498 260.783C84.1969 261.388 83.7123 261.966 83.1984 262.514C83.0114 262.448 82.8427 262.334 82.7075 262.183C82.5722 262.031 82.4747 261.846 82.4236 261.645C82.3724 261.444 82.3694 261.232 82.4146 261.029C82.4599 260.827 82.552 260.639 82.6828 260.483C82.8135 260.327 82.9788 260.208 83.1639 260.136C83.3489 260.065 83.5478 260.043 83.7428 260.072C83.9378 260.102 84.1227 260.183 84.281 260.307C84.4393 260.431 84.566 260.595 84.6498 260.783Z" fill="black"/>
<path opacity="0.2" d="M144.035 293.204C144.364 293.204 144.631 292.922 144.631 292.574C144.631 292.227 144.364 291.945 144.035 291.945C143.706 291.945 143.439 292.227 143.439 292.574C143.439 292.922 143.706 293.204 144.035 293.204Z" fill="black"/>
<path d="M136.148 82.5025C129.601 70.0241 116.312 61.4686 101.041 61.4686C79.2927 61.4686 61.5937 78.7798 61.5937 100.058H58.7993C58.7993 77.1627 77.7439 58.5337 101.021 58.5337C114.498 58.5337 126.52 64.7752 134.256 74.477C134.89 76.6511 135.374 78.8748 135.853 81.0943C135.96 81.567 136.06 82.0359 136.148 82.5025Z" fill="#ACA3BB"/>
<path d="M64.6984 87.7969H68.3501V114.52H64.6984C63.3177 114.52 61.9506 114.232 60.675 113.673C59.3994 113.114 58.2403 112.295 57.264 111.262C56.2877 110.229 55.5133 109.003 54.9849 107.653C54.4565 106.303 54.1846 104.857 54.1846 103.396V98.9477C54.1813 97.4846 54.4507 96.0352 54.9776 94.6825C55.5045 93.3298 56.2784 92.1003 57.255 91.0645C58.2317 90.0287 59.3918 89.2069 60.6691 88.6462C61.9464 88.0855 63.3156 87.7969 64.6984 87.7969Z" fill="#ACA3BB"/>
<path d="M68.8099 87.8198H67.8928C66.4343 87.8198 65.252 89.0708 65.252 90.6139V111.726C65.252 113.269 66.4343 114.52 67.8928 114.52H68.8099C70.2683 114.52 71.4507 113.269 71.4507 111.726V90.6139C71.4507 89.0708 70.2683 87.8198 68.8099 87.8198Z" fill="#FFFDFD"/>
<path d="M79.7833 279.958L177.203 269.455L178.393 289.587L134.224 293.374C131.179 293.639 128.114 293.392 125.143 292.64L79.7023 281.275C79.5575 281.238 79.4299 281.147 79.3417 281.02C79.2536 280.893 79.2106 280.737 79.2203 280.58C79.2301 280.423 79.2919 280.274 79.3949 280.16C79.4979 280.046 79.6356 279.974 79.7837 279.957L79.7833 279.958Z" fill="#433878"/>
<path opacity="0.3" d="M102.881 280.692L154.394 275.139L155.024 285.783L131.669 287.789C130.059 287.928 128.437 287.795 126.866 287.395L102.839 281.385C102.763 281.366 102.695 281.318 102.648 281.251C102.601 281.184 102.578 281.101 102.583 281.018C102.588 280.934 102.621 280.855 102.676 280.795C102.731 280.735 102.805 280.698 102.883 280.69L102.881 280.692Z" fill="white"/>
<path d="M157.505 190.38L257.318 189.078C259.799 189.25 262.142 190.347 263.931 192.174C264.713 192.968 265.307 193.945 265.665 195.026C266.024 196.108 266.137 197.263 265.995 198.399L254.672 279.401C254.113 283.417 250.292 286.514 245.592 286.758L143.574 292.184C140.758 292.373 137.98 291.408 135.818 289.49C133.837 287.636 132.933 285.111 133.359 282.62L146.905 197.493C147.659 193.067 152.327 189.935 157.505 190.38Z" fill="#433878"/>
<path d="M204.418 233.171C207.044 233.171 209.174 230.918 209.174 228.139C209.174 225.359 207.044 223.106 204.418 223.106C201.791 223.106 199.662 225.359 199.662 228.139C199.662 230.918 201.791 233.171 204.418 233.171Z" fill="#F2F2F2"/>
</g>
<g clip-path="url(#clip1_45_612)">
<path d="M297.603 174.925H212.064C211.534 174.925 211.025 174.706 210.65 174.319C210.275 173.931 210.064 173.405 210.064 172.856V112.441C210.064 111.892 210.275 111.367 210.65 110.979C211.025 110.591 211.534 110.373 212.064 110.372H297.603C298.133 110.373 298.642 110.591 299.017 110.979C299.392 111.367 299.603 111.892 299.603 112.441V172.856C299.603 173.405 299.392 173.931 299.017 174.319C298.642 174.706 298.133 174.925 297.603 174.925Z" fill="white"/>
<path d="M297.603 174.925H212.064C211.534 174.925 211.025 174.706 210.65 174.319C210.275 173.931 210.064 173.405 210.064 172.856V112.441C210.064 111.892 210.275 111.367 210.65 110.979C211.025 110.591 211.534 110.373 212.064 110.372H297.603C298.133 110.373 298.642 110.591 299.017 110.979C299.392 111.367 299.603 111.892 299.603 112.441V172.856C299.603 173.405 299.392 173.931 299.017 174.319C298.642 174.706 298.133 174.925 297.603 174.925ZM212.064 110.832C211.651 110.832 211.256 111.002 210.964 111.304C210.673 111.605 210.509 112.014 210.508 112.441V172.856C210.509 173.283 210.673 173.692 210.964 173.994C211.256 174.295 211.651 174.465 212.064 174.466H297.603C298.015 174.465 298.411 174.295 298.703 173.994C298.994 173.692 299.158 173.283 299.159 172.856V112.441C299.158 112.014 298.994 111.605 298.703 111.304C298.411 111.002 298.015 110.832 297.603 110.832H212.064Z" fill="#3F3D56"/>
<path d="M264.733 174.562H244.931V140.652C244.932 139.847 245.242 139.076 245.791 138.508C246.341 137.939 247.087 137.619 247.864 137.618H261.801C262.578 137.619 263.324 137.939 263.873 138.508C264.423 139.076 264.732 139.847 264.733 140.652V174.562Z" fill="#ACA3BB"/>
<path d="M292.936 97.4931H281.628V77.9439C281.629 77.3954 281.839 76.8695 282.214 76.4816C282.589 76.0938 283.098 75.8756 283.628 75.875H290.936C291.467 75.8756 291.975 76.0938 292.35 76.4816C292.725 76.8695 292.936 77.3954 292.936 77.9439V97.4931Z" fill="white"/>
<path d="M292.936 97.4931H281.628V77.9439C281.629 77.3954 281.839 76.8695 282.214 76.4816C282.589 76.0938 283.098 75.8756 283.628 75.875H290.936C291.467 75.8756 291.975 76.0938 292.35 76.4816C292.725 76.8695 292.936 77.3954 292.936 77.9439V97.4931ZM282.072 97.0334H292.492V77.9439C292.491 77.5172 292.327 77.1082 292.036 76.8066C291.744 76.5049 291.349 76.3352 290.936 76.3347H283.628C283.216 76.3352 282.82 76.5049 282.528 76.8066C282.237 77.1082 282.073 77.5172 282.072 77.9439V97.0334Z" fill="#3F3D56"/>
<path d="M229.175 105.725C241.203 105.725 250.953 95.6399 250.953 83.1994C250.953 70.7589 241.203 60.6738 229.175 60.6738C217.148 60.6738 207.397 70.7589 207.397 83.1994C207.397 95.6399 217.148 105.725 229.175 105.725Z" fill="#F2F2F2"/>
<path d="M287.621 72.4479C285.66 72.3842 283.914 70.5339 283.9 68.5043C283.886 66.4747 285.606 64.5988 287.566 64.5061C291.931 64.2996 295.504 59.4548 294.544 55.046C293.583 50.6372 288.346 47.846 284.318 49.5957C281.228 50.938 278.106 46.7088 278.889 43.338C279.672 39.9671 282.636 37.7036 285.378 35.7104C288.12 33.7171 291.053 31.3768 291.715 27.9783C292.377 24.5798 288.989 20.5087 286.003 22.0841" fill="#E6E6E6"/>
<path d="M236.565 147.467H219.839C219.171 147.466 218.532 147.192 218.06 146.704C217.588 146.216 217.323 145.554 217.322 144.864V130.599C217.323 129.909 217.588 129.247 218.06 128.759C218.532 128.271 219.171 127.997 219.839 127.996H236.565C237.233 127.997 237.872 128.271 238.344 128.759C238.816 129.247 239.081 129.909 239.082 130.599V144.864C239.081 145.554 238.816 146.216 238.344 146.704C237.872 147.192 237.233 147.466 236.565 147.467Z" fill="#ACA3BB"/>
<path d="M290.213 147.467H273.486C272.819 147.466 272.179 147.192 271.707 146.704C271.236 146.216 270.97 145.554 270.969 144.864V130.599C270.97 129.909 271.236 129.247 271.707 128.759C272.179 128.271 272.819 127.997 273.486 127.996H290.213C290.88 127.997 291.52 128.271 291.991 128.759C292.463 129.247 292.729 129.909 292.729 130.599V144.864C292.729 145.554 292.463 146.216 291.991 146.704C291.52 147.192 290.88 147.466 290.213 147.467Z" fill="#ACA3BB"/>
<path d="M203.677 111.614V102.319C203.677 101.605 203.86 100.904 204.206 100.286C204.553 99.6684 205.051 99.1565 205.65 98.8022L255.582 69.2834C256.202 68.917 256.907 68.7328 257.621 68.7507C258.334 68.7686 259.03 68.988 259.632 69.3851L304.179 98.7742C304.734 99.1403 305.191 99.6451 305.507 100.242C305.824 100.839 305.99 101.509 305.99 102.189V111.614C305.99 112.689 305.577 113.719 304.843 114.479C304.108 115.238 303.112 115.665 302.073 115.665H207.594C206.555 115.665 205.559 115.238 204.824 114.479C204.09 113.719 203.677 112.689 203.677 111.614Z" fill="#433878"/>
<path opacity="0.2" d="M302.073 111.526H207.593C206.555 111.526 205.559 111.099 204.824 110.339C204.09 109.58 203.677 108.549 203.677 107.475V111.153C203.677 112.227 204.09 113.258 204.824 114.017C205.559 114.777 206.555 115.204 207.593 115.204H302.073C303.112 115.204 304.108 114.777 304.843 114.017C305.577 113.258 305.99 112.227 305.99 111.153V107.475C305.99 108.549 305.577 109.58 304.843 110.339C304.108 111.099 303.112 111.526 302.073 111.526Z" fill="black"/>
<path d="M309.744 143.336C309.744 136.208 315.331 119.293 322.223 119.293C329.114 119.293 334.701 136.208 334.701 143.336C334.701 146.759 333.386 150.042 331.046 152.463C328.706 154.883 325.532 156.243 322.223 156.243C318.913 156.243 315.739 154.883 313.399 152.463C311.059 150.042 309.744 146.759 309.744 143.336Z" fill="#ACA3BB"/>
<path d="M322.224 174.651C322.165 174.651 322.108 174.626 322.066 174.583C322.024 174.54 322.001 174.482 322.001 174.421V128.076C322.001 128.015 322.024 127.957 322.066 127.914C322.108 127.87 322.165 127.846 322.224 127.846C322.283 127.846 322.339 127.87 322.381 127.914C322.423 127.957 322.447 128.015 322.447 128.076V174.421C322.447 174.482 322.423 174.54 322.381 174.583C322.339 174.626 322.283 174.651 322.224 174.651Z" fill="#3F3D56"/>
<path d="M322.223 148.628C322.179 148.628 322.137 148.614 322.101 148.59C322.064 148.565 322.036 148.53 322.019 148.488C322.002 148.447 321.997 148.401 322.004 148.357C322.012 148.313 322.032 148.272 322.062 148.239L328.405 141.354C328.425 141.332 328.449 141.315 328.476 141.302C328.502 141.29 328.531 141.284 328.56 141.283C328.59 141.282 328.619 141.287 328.646 141.298C328.673 141.309 328.698 141.325 328.719 141.346C328.74 141.367 328.757 141.392 328.769 141.42C328.781 141.447 328.787 141.477 328.788 141.507C328.789 141.537 328.784 141.567 328.773 141.595C328.762 141.624 328.747 141.649 328.727 141.671L322.384 148.556C322.363 148.579 322.338 148.597 322.31 148.609C322.283 148.621 322.253 148.628 322.223 148.628Z" fill="#3F3D56"/>
<path d="M322.222 137.02C322.167 137.02 322.113 136.999 322.072 136.96L316.591 131.776C316.569 131.756 316.552 131.731 316.539 131.704C316.527 131.676 316.52 131.647 316.518 131.616C316.517 131.586 316.521 131.556 316.531 131.528C316.541 131.499 316.557 131.473 316.576 131.451C316.596 131.428 316.62 131.41 316.646 131.398C316.673 131.385 316.701 131.377 316.731 131.376C316.76 131.375 316.789 131.38 316.817 131.39C316.844 131.4 316.869 131.416 316.891 131.437L322.372 136.621C322.405 136.652 322.428 136.693 322.438 136.738C322.449 136.783 322.445 136.83 322.429 136.874C322.413 136.917 322.385 136.954 322.348 136.98C322.311 137.006 322.267 137.02 322.222 137.02Z" fill="#3F3D56"/>
<path d="M157.437 129.152C157.437 118.666 165.655 93.7837 175.793 93.7837C185.931 93.7837 194.149 118.666 194.149 129.152C194.149 134.188 192.215 139.017 188.773 142.578C185.33 146.138 180.661 148.139 175.793 148.139C170.925 148.139 166.256 146.138 162.813 142.578C159.371 139.017 157.437 134.188 157.437 129.152Z" fill="#ACA3BB"/>
<path d="M175.794 175.11C175.735 175.11 175.678 175.086 175.637 175.043C175.595 175 175.571 174.942 175.571 174.881V106.705C175.571 106.644 175.595 106.586 175.637 106.543C175.678 106.5 175.735 106.476 175.794 106.476C175.853 106.476 175.91 106.5 175.952 106.543C175.994 106.586 176.017 106.644 176.017 106.705V174.881C176.017 174.942 175.994 175 175.952 175.043C175.91 175.086 175.853 175.11 175.794 175.11Z" fill="#3F3D56"/>
<path d="M175.794 136.829C175.75 136.829 175.707 136.816 175.671 136.791C175.635 136.766 175.606 136.731 175.589 136.69C175.572 136.648 175.567 136.603 175.575 136.559C175.583 136.514 175.603 136.473 175.633 136.441L184.963 126.313C185.004 126.268 185.06 126.243 185.119 126.241C185.178 126.24 185.235 126.263 185.277 126.305C185.32 126.347 185.345 126.405 185.346 126.466C185.348 126.527 185.325 126.586 185.285 126.63L175.954 136.758C175.934 136.78 175.909 136.798 175.881 136.811C175.853 136.823 175.824 136.829 175.794 136.829Z" fill="#3F3D56"/>
<path d="M175.793 119.754C175.737 119.754 175.684 119.733 175.643 119.694L167.58 112.068C167.536 112.027 167.51 111.97 167.508 111.909C167.505 111.848 167.526 111.788 167.566 111.743C167.605 111.698 167.661 111.671 167.72 111.669C167.778 111.666 167.836 111.688 167.88 111.729L175.943 119.355C175.976 119.386 175.999 119.427 176.009 119.472C176.019 119.517 176.016 119.564 176 119.608C175.984 119.651 175.955 119.688 175.918 119.714C175.881 119.74 175.838 119.754 175.793 119.754Z" fill="#3F3D56"/>
<path d="M313.506 174.627C313.527 174.644 313.549 174.659 313.571 174.676H331.639C331.994 173.192 332.119 171.706 331.59 170.416C330.836 168.578 328.606 167.431 326.833 168.22C326.413 168.412 326.047 168.712 325.77 169.09C325.077 167.808 323.834 166.84 322.4 166.841C320.603 166.843 319.108 168.363 318.621 170.119C317.835 168.748 316.284 167.79 314.768 168.202C312.232 168.891 311.432 172.969 313.506 174.627Z" fill="#E6E6E6"/>
<path d="M158.263 175.039C158.305 175.073 158.35 175.103 158.393 175.136H194.872C195.587 172.141 195.839 169.142 194.772 166.538C193.25 162.827 188.748 160.511 185.169 162.104C184.321 162.492 183.582 163.097 183.022 163.861C181.623 161.271 179.114 159.319 176.218 159.321C172.59 159.323 169.573 162.393 168.588 165.938C167.003 163.17 163.872 161.236 160.811 162.068C155.691 163.459 154.074 171.691 158.263 175.039Z" fill="#E6E6E6"/>
<path d="M341.439 174.435L152.542 174.836L152.543 175.295L341.439 174.894L341.439 174.435Z" fill="#3F3D56"/>
</g>
<defs>
<clipPath id="clip0_45_612">
<rect width="334.642" height="261.557" fill="white" transform="translate(0 49.7817)"/>
</clipPath>
<clipPath id="clip1_45_612">
<rect width="180.383" height="165.131" fill="white" transform="translate(162.967 21.7349)"/>
</clipPath>
</defs>
</svg>
