<svg width="200" height="200" viewBox="0 0 200 200" fill="none" xmlns="http://www.w3.org/2000/svg">
<path d="M166.667 150C175.833 150 183.25 142.5 183.25 133.333L183.333 50C183.333 45.5797 181.577 41.3405 178.452 38.2149C175.326 35.0893 171.087 33.3333 166.667 33.3333H33.3333C24.0833 33.3333 16.6667 40.75 16.6667 50V133.333C16.6667 137.754 18.4226 141.993 21.5482 145.118C24.6738 148.244 28.9131 150 33.3333 150H0V166.667H200V150H166.667ZM33.3333 133.333V50H166.667V133.417L33.3333 133.333ZM75.8083 82.9417C75.8083 74.3833 82.775 67.4083 91.3417 67.4083C99.9 67.4083 106.875 74.3833 106.875 82.9417C106.868 87.0593 105.23 91.0065 102.318 93.9181C99.4064 96.8297 95.4593 98.4684 91.3417 98.475C87.224 98.4684 83.2769 96.8297 80.3652 93.9181C77.4536 91.0065 75.8149 87.0593 75.8083 82.9417ZM134.408 118.242L113.725 97.5583C116.586 93.2201 118.113 88.1384 118.117 82.9417C118.11 75.8411 115.286 69.0334 110.264 64.0133C105.243 58.9932 98.4339 56.1711 91.3333 56.1667C84.2334 56.1733 77.4261 58.9961 72.4049 64.0157C67.3837 69.0353 64.5588 75.8418 64.55 82.9417C64.5588 90.0424 67.3835 96.8497 72.4044 101.871C77.4253 106.892 84.2327 109.716 91.3333 109.725C96.4306 109.715 101.418 108.24 105.7 105.475L126.442 126.2L134.408 118.242Z" fill="#ACA8BC"/>
</svg>
