<svg width="43" height="42" viewBox="0 0 43 42" fill="none" xmlns="http://www.w3.org/2000/svg">
<path d="M35.5 21C35.5 17.7002 35.5 16.0502 34.4748 15.0251C33.4497 14 31.7998 14 28.5 14H26.1496C24.7189 14 24.0035 14 23.3604 13.7336C22.7171 13.4672 22.2114 12.9614 21.1997 11.9498L20.0503 10.8002C19.0386 9.78864 18.5329 9.28284 17.8896 9.01642C17.2464 8.75 16.5311 8.75 15.1005 8.75H14.5C11.2002 8.75 9.55025 8.75 8.52513 9.77513C7.5 10.8002 7.5 12.4502 7.5 15.75V26.25C7.5 29.5498 7.5 31.1997 8.52513 32.2248C9.55025 33.25 11.2002 33.25 14.5 33.25H19.75" stroke="#140648" stroke-width="2"/>
<path d="M29.375 33.25C31.7912 33.25 33.75 31.2912 33.75 28.875C33.75 26.4588 31.7912 24.5 29.375 24.5C26.9588 24.5 25 26.4588 25 28.875C25 31.2912 26.9588 33.25 29.375 33.25Z" stroke="#140648" stroke-width="2"/>
<path d="M34.625 34.125L37.25 36.75" stroke="#140648" stroke-width="2" stroke-linecap="round"/>
</svg>
