<svg width="40" height="40" viewBox="0 0 40 40" fill="none" xmlns="http://www.w3.org/2000/svg">
<path d="M19.9997 34.1667C27.8236 34.1667 34.1663 27.824 34.1663 20C34.1663 12.176 27.8236 5.83337 19.9997 5.83337C12.1756 5.83337 5.83301 12.176 5.83301 20C5.83301 27.824 12.1756 34.1667 19.9997 34.1667Z" stroke="#140648" stroke-width="2" stroke-linecap="round" stroke-linejoin="round"/>
<path d="M14.3334 12.9166H18.5833M18.5833 12.9166H25.6668M18.5833 12.9166C19.9999 12.9166 22.8333 13.7666 22.8333 17.1666M25.6666 17.1666H22.8333M22.8333 17.1666H22.0564H14.3291M22.8333 17.1666C22.8333 20.5666 19.9999 21.4166 18.5833 21.4166H14.3291L21.4166 27.0833" stroke="#140648" stroke-width="2" stroke-linecap="round" stroke-linejoin="round"/>
</svg>
